<svg width="24" height="26" viewBox="0 0 24 26" fill="none" xmlns="http://www.w3.org/2000/svg">
<path d="M21.375 2.75H18.5625V1.8125C18.5625 1.56386 18.4637 1.3254 18.2879 1.14959C18.1121 0.973772 17.8736 0.875 17.625 0.875C17.3764 0.875 17.1379 0.973772 16.9621 1.14959C16.7863 1.3254 16.6875 1.56386 16.6875 1.8125V2.75H7.3125V1.8125C7.3125 1.56386 7.21373 1.3254 7.03791 1.14959C6.8621 0.973772 6.62364 0.875 6.375 0.875C6.12636 0.875 5.8879 0.973772 5.71209 1.14959C5.53627 1.3254 5.4375 1.56386 5.4375 1.8125V2.75H2.625C2.12772 2.75 1.65081 2.94754 1.29917 3.29917C0.947544 3.65081 0.75 4.12772 0.75 4.625V23.375C0.75 23.8723 0.947544 24.3492 1.29917 24.7008C1.65081 25.0525 2.12772 25.25 2.625 25.25H21.375C21.8723 25.25 22.3492 25.0525 22.7008 24.7008C23.0525 24.3492 23.25 23.8723 23.25 23.375V4.625C23.25 4.12772 23.0525 3.65081 22.7008 3.29917C22.3492 2.94754 21.8723 2.75 21.375 2.75ZM5.4375 4.625V5.5625C5.4375 5.81114 5.53627 6.0496 5.71209 6.22541C5.8879 6.40123 6.12636 6.5 6.375 6.5C6.62364 6.5 6.8621 6.40123 7.03791 6.22541C7.21373 6.0496 7.3125 5.81114 7.3125 5.5625V4.625H16.6875V5.5625C16.6875 5.81114 16.7863 6.0496 16.9621 6.22541C17.1379 6.40123 17.3764 6.5 17.625 6.5C17.8736 6.5 18.1121 6.40123 18.2879 6.22541C18.4637 6.0496 18.5625 5.81114 18.5625 5.5625V4.625H21.375V8.375H2.625V4.625H5.4375ZM21.375 23.375H2.625V10.25H21.375V23.375ZM15.75 16.8125C15.75 17.0611 15.6512 17.2996 15.4754 17.4754C15.2996 17.6512 15.0611 17.75 14.8125 17.75H12.9375V19.625C12.9375 19.8736 12.8387 20.1121 12.6629 20.2879C12.4871 20.4637 12.2486 20.5625 12 20.5625C11.7514 20.5625 11.5129 20.4637 11.3371 20.2879C11.1613 20.1121 11.0625 19.8736 11.0625 19.625V17.75H9.1875C8.93886 17.75 8.7004 17.6512 8.52459 17.4754C8.34877 17.2996 8.25 17.0611 8.25 16.8125C8.25 16.5639 8.34877 16.3254 8.52459 16.1496C8.7004 15.9738 8.93886 15.875 9.1875 15.875H11.0625V14C11.0625 13.7514 11.1613 13.5129 11.3371 13.3371C11.5129 13.1613 11.7514 13.0625 12 13.0625C12.2486 13.0625 12.4871 13.1613 12.6629 13.3371C12.8387 13.5129 12.9375 13.7514 12.9375 14V15.875H14.8125C15.0611 15.875 15.2996 15.9738 15.4754 16.1496C15.6512 16.3254 15.75 16.5639 15.75 16.8125Z" fill="#00B8FF"/>
</svg>
