<svg width="28" height="30" viewBox="0 0 28 30" fill="none" xmlns="http://www.w3.org/2000/svg">
<path fill-rule="evenodd" clip-rule="evenodd" d="M11.7169 1.06365L12.515 3.1657C12.539 3.22886 12.5949 3.26947 12.6624 3.27275L14.9082 3.3822C15.0609 3.38965 15.1234 3.58207 15.0043 3.67787L13.2517 5.08646C13.199 5.12877 13.1777 5.19445 13.1954 5.25967L13.7853 7.42933C13.8255 7.57687 13.6618 7.69582 13.5338 7.61203L11.6526 6.38056C11.596 6.34353 11.527 6.34353 11.4705 6.38056L9.58925 7.61203C9.46128 7.69582 9.29763 7.57687 9.33777 7.42933L9.92763 5.25961C9.94533 5.19439 9.92406 5.12871 9.87138 5.0864L8.11884 3.67781C7.99966 3.58201 8.06218 3.38959 8.21494 3.38215L10.4607 3.27269C10.5282 3.26941 10.5841 3.22881 10.6081 3.16564L11.4062 1.06359C11.46 0.921501 11.663 0.921501 11.7169 1.06365ZM22.5752 18.8664C25.3961 18.8664 27.683 21.1533 27.683 23.9742C27.683 26.7952 25.3961 29.082 22.5752 29.082C19.7543 29.082 17.4674 26.7952 17.4674 23.9742C17.4674 21.1533 19.7543 18.8664 22.5752 18.8664ZM21.9043 24.4247L20.763 23.2835C20.4672 22.9877 19.9874 22.9877 19.6916 23.2835C19.3958 23.5792 19.3958 24.0591 19.6916 24.3548L21.3702 26.0335C21.666 26.3293 22.1458 26.3293 22.4416 26.0335C23.4534 25.0217 24.4538 23.9985 25.4609 22.982C25.7546 22.6856 25.7536 22.2073 25.4576 21.9129C25.1615 21.6185 24.6819 21.6193 24.3879 21.9163L21.9043 24.4247ZM3.15542 26.3404L17.0107 26.3404C16.7013 25.6136 16.53 24.8139 16.53 23.9742C16.53 22.6971 16.9264 21.5128 17.6023 20.5368C15.9972 19.1057 13.8812 18.2358 11.5616 18.2358C7.09661 18.2358 3.38452 21.4582 2.62316 25.7041C2.56327 26.0377 2.81658 26.3404 3.15542 26.3404ZM11.5616 8.46633C14.0976 8.46633 16.1534 10.5221 16.1534 13.0581C16.1534 15.594 14.0976 17.6498 11.5616 17.6498C9.0257 17.6498 6.96988 15.594 6.96988 13.0581C6.96982 10.5221 9.02564 8.46633 11.5616 8.46633ZM19.453 4.03904C19.399 3.89689 19.196 3.89689 19.1421 4.03904L18.344 6.14109C18.32 6.20431 18.2641 6.24486 18.1966 6.24814L15.9508 6.35759C15.7981 6.36504 15.7356 6.55746 15.8547 6.65326L17.6073 8.06185C17.66 8.10422 17.6813 8.16984 17.6635 8.23506L17.0737 10.4048C17.0335 10.5524 17.1972 10.6713 17.3251 10.5875L19.2064 9.35601C19.2629 9.31898 19.3319 9.31898 19.3885 9.35601L21.2697 10.5875C21.3977 10.6713 21.5614 10.5523 21.5212 10.4048L20.9313 8.23511C20.9135 8.1699 20.9349 8.10428 20.9876 8.06191L22.7401 6.65332C22.8593 6.55752 22.7968 6.3651 22.644 6.35765L20.3982 6.2482C20.3307 6.24492 20.2749 6.20431 20.2509 6.14115L19.453 4.03904ZM3.98083 4.03904C3.92687 3.89689 3.7239 3.89689 3.66999 4.03904L2.87189 6.14109C2.84792 6.20431 2.79202 6.24486 2.72452 6.24814L0.478743 6.35759C0.325989 6.36504 0.26347 6.55746 0.38265 6.65326L2.13519 8.06185C2.18786 8.10422 2.20919 8.16984 2.19144 8.23506L1.60158 10.4048C1.56144 10.5524 1.72509 10.6713 1.85306 10.5875L3.73427 9.35601C3.79081 9.31898 3.85984 9.31898 3.91638 9.35601L5.79765 10.5875C5.92562 10.6713 6.08927 10.5523 6.04913 10.4048L5.45927 8.23511C5.44152 8.1699 5.46284 8.10428 5.51552 8.06191L7.26806 6.65332C7.38724 6.55752 7.32472 6.3651 7.17197 6.35765L4.92618 6.2482C4.85869 6.24492 4.80285 6.20431 4.77882 6.14115L3.98083 4.03904Z" fill="#2437AC"/>
</svg>
