<svg width="40" height="40" viewBox="0 0 40 40" fill="none" xmlns="http://www.w3.org/2000/svg">
<path d="M35.3072 23.9574C36.623 20.0798 36.5882 15.8711 35.2084 12.0158C33.8286 8.16051 31.1851 4.88547 27.7077 2.72333C24.2303 0.561187 20.1237 -0.360844 16.0558 0.107201C11.9879 0.575246 8.19801 2.40583 5.30255 5.30122C2.40708 8.1966 0.576392 11.9864 0.108235 16.0543C-0.359922 20.1222 0.561996 24.2289 2.72404 27.7063C4.88608 31.1837 8.16106 33.8274 12.0163 35.2073C15.8715 36.5872 20.0802 36.6221 23.9579 35.3064C24.556 36.5083 25.4315 37.5506 26.512 38.3474C27.5925 39.1442 28.847 39.6725 30.172 39.8888C31.497 40.1051 32.8544 40.0031 34.1321 39.5912C35.4099 39.1794 36.5714 38.4696 37.5207 37.5203C38.47 36.571 39.1799 35.4095 39.5918 34.1318C40.0036 32.854 40.1057 31.4966 39.8894 30.1716C39.6732 28.8466 39.1449 27.5921 38.3482 26.5116C37.5514 25.4311 36.5091 24.5556 35.3072 23.9574ZM34.2969 23.5324C32.2171 22.8112 29.9378 22.9314 27.9454 23.8674L28.7469 22.4683C28.7943 22.3855 28.8192 22.2918 28.8191 22.1964V19.6105L30.5185 17.8624C30.6178 17.7603 30.6733 17.6235 30.6732 17.4811V15.2564C30.6732 15.137 30.6341 15.0209 30.5618 14.9258C30.4896 14.8307 30.3882 14.7619 30.2732 14.7299L27.2732 13.8936L26.1638 11.723C26.1245 11.6462 26.0676 11.5798 25.9978 11.5292C25.9279 11.4786 25.8471 11.4452 25.7619 11.4317L21.5088 10.7627V10.3452L27.25 9.07454L29.3954 11.2183C29.498 11.3208 29.6371 11.3785 29.7822 11.3786H33.776C35.441 15.2269 35.6265 19.5544 34.2969 23.5311V23.5324ZM33.2529 10.2861H30.0085L27.8125 8.08923C27.7475 8.02429 27.6672 7.97675 27.5791 7.95097C27.4909 7.9252 27.3976 7.92202 27.3079 7.94173L20.8438 9.37204C20.7223 9.39898 20.6136 9.46654 20.5356 9.56358C20.4577 9.66062 20.4152 9.78133 20.415 9.90579V11.2302C20.4151 11.3604 20.4617 11.4864 20.5463 11.5854C20.631 11.6844 20.7482 11.7499 20.8769 11.7702L25.3166 12.4683L26.4082 14.6045C26.4425 14.6718 26.4905 14.7313 26.549 14.7791C26.6076 14.8269 26.6754 14.8621 26.7482 14.8824L29.5794 15.6714V17.2589L27.88 19.007C27.7808 19.1092 27.7254 19.2459 27.7254 19.3883V22.0505L25.9197 25.2033C25.189 25.8514 24.5751 26.6203 24.1047 27.4764H22.886V25.7455C22.886 25.6697 22.8702 25.5947 22.8397 25.5253C22.8092 25.4559 22.7646 25.3936 22.7088 25.3424L20.3438 23.1739V20.6595C20.3438 20.5473 20.3092 20.4378 20.2448 20.3459C20.1804 20.254 20.0893 20.1841 19.9838 20.1458L15.0988 18.3695V14.307L18.2907 10.8605C18.3424 10.8047 18.3819 10.7386 18.4066 10.6667C18.4314 10.5947 18.4408 10.5184 18.4344 10.4425C18.4279 10.3667 18.4058 10.2931 18.3692 10.2263C18.3327 10.1596 18.2826 10.1012 18.2222 10.0549L15.3029 7.81548L17.6954 4.44048H22.5775C22.7226 4.44041 22.8616 4.38274 22.9641 4.28017L24.7947 2.44985C28.4343 4.00708 31.4228 6.77584 33.2529 10.2861ZM7.13348 5.13485L8.50661 7.96329L7.40098 8.51642C7.34664 8.54355 7.29721 8.57957 7.25473 8.62298L4.65911 11.2714C4.58737 11.3446 4.53762 11.4364 4.51553 11.5365C4.49343 11.6365 4.49986 11.7408 4.53411 11.8374L4.90629 12.8836C4.47964 13.1465 4.09324 13.4698 3.75911 13.8433L1.55379 14.2145C2.39627 10.6698 4.35163 7.48785 7.13348 5.13485ZM1.09786 18.293H2.88942L7.40973 19.9933L9.72223 23.9083V25.4752L9.04473 26.5039C8.9705 26.6164 8.94045 26.7524 8.96035 26.8857C8.98025 27.019 9.04869 27.1402 9.15254 27.2261L9.32442 27.368L7.68411 28.3486C7.603 28.3971 7.53583 28.4657 7.48917 28.5479C7.44251 28.63 7.41794 28.7229 7.41786 28.8174V31.3683C5.46482 29.7903 3.88528 27.7995 2.79259 25.5389C1.6999 23.2782 1.12115 20.8037 1.09786 18.293ZM18.1344 35.1745C14.6971 35.1776 11.3402 34.135 8.50942 32.1852C8.50942 32.1783 8.51129 32.1717 8.51129 32.1649V29.1283L10.5494 27.9095C10.6247 27.8647 10.688 27.8024 10.7341 27.728C10.7803 27.6535 10.8078 27.5691 10.8145 27.4817C10.8212 27.3944 10.8068 27.3067 10.7725 27.2262C10.7382 27.1455 10.6851 27.0744 10.6175 27.0186L10.2275 26.6958L10.7254 25.9402C10.7844 25.8509 10.8158 25.7462 10.8157 25.6392V23.7586C10.8158 23.6609 10.7896 23.5649 10.7397 23.4808L8.25348 19.2714C8.19006 19.164 8.09181 19.0815 7.97504 19.0377L3.18129 17.2342C3.11975 17.2111 3.05454 17.1992 2.98879 17.1992H1.12036C1.15471 16.5837 1.2222 15.9706 1.32254 15.3624L4.13505 14.8892C4.26493 14.8673 4.38255 14.7993 4.46629 14.6977C4.83727 14.2486 5.2989 13.8829 5.82098 13.6245C5.94048 13.5649 6.034 13.4635 6.08391 13.3396C6.13382 13.2158 6.13667 13.0779 6.09192 12.952L5.67942 11.792L7.97192 9.45298L9.47911 8.69923C9.60784 8.63482 9.70601 8.52227 9.75234 8.38598C9.79867 8.24969 9.78942 8.10063 9.72661 7.9711L8.01036 4.43704C10.2286 2.7919 12.8144 1.71226 15.5438 1.29162C18.2733 0.870973 21.0641 1.12201 23.6747 2.02298L22.351 3.34673H17.4125C17.3252 3.34677 17.239 3.36772 17.1614 3.40784C17.0838 3.44797 17.0169 3.50609 16.9663 3.57735L14.106 7.61267C14.0242 7.72808 13.9904 7.87069 14.0115 8.01053C14.0327 8.15037 14.1072 8.27658 14.2194 8.36267L17.0804 10.557L14.151 13.7183C14.0572 13.8194 14.0051 13.9522 14.005 14.0902V18.7527C14.005 18.8649 14.0396 18.9744 14.104 19.0663C14.1684 19.1582 14.2596 19.2281 14.365 19.2664L19.25 21.0427V23.4145C19.2501 23.4903 19.2658 23.5653 19.2963 23.6347C19.3268 23.7041 19.3714 23.7664 19.4272 23.8177L21.7925 25.9858V28.0233C21.7925 28.1683 21.8502 28.3074 21.9527 28.41C22.0553 28.5126 22.1944 28.5702 22.3394 28.5702H23.6041C22.9139 30.4124 22.8888 32.4379 23.5332 34.2967C21.7928 34.8788 19.9696 35.1753 18.1344 35.1745ZM31.5338 38.9058C30.0756 38.9059 28.6501 38.4735 27.4376 37.6634C26.2251 36.8533 25.28 35.7018 24.722 34.3546C24.1639 33.0074 24.0178 31.5249 24.3023 30.0947C24.5868 28.6645 25.289 27.3507 26.3201 26.3196C27.3512 25.2885 28.665 24.5863 30.0952 24.3018C31.5254 24.0173 33.0079 24.1634 34.3551 24.7214C35.7023 25.2795 36.8538 26.2246 37.6639 27.4371C38.474 28.6496 38.9064 30.0751 38.9063 31.5333C38.9041 33.4879 38.1266 35.3618 36.7445 36.744C35.3623 38.1261 33.4884 38.9036 31.5338 38.9058Z" fill="white"/>
<path d="M37.3885 28.444L36.6932 27.7484C36.354 27.4093 35.894 27.2188 35.4144 27.2188C34.9348 27.2188 34.4748 27.4093 34.1357 27.7484L32.6769 29.2069L30.1894 28.6309C29.8556 28.5526 29.5073 28.561 29.1778 28.6554C28.8482 28.7498 28.5482 28.9271 28.3066 29.1703L27.7319 29.7453C27.6689 29.8082 27.6222 29.8856 27.5958 29.9707C27.5695 30.0557 27.5644 30.146 27.5809 30.2335C27.5974 30.321 27.6351 30.4032 27.6906 30.4728C27.7461 30.5425 27.8178 30.5975 27.8994 30.6331L30.2322 31.6519L29.3135 32.5703L27.1288 32.7728C27.0019 32.7841 26.883 32.8393 26.7925 32.929L25.6775 34.0437C25.6102 34.1112 25.5617 34.195 25.5367 34.2869C25.5117 34.3789 25.5112 34.4757 25.5352 34.5679C25.5591 34.6602 25.6067 34.7445 25.6733 34.8127C25.7399 34.8808 25.8231 34.9304 25.9147 34.9565L28.6435 35.7328C29.1694 35.8824 29.7256 35.8888 30.2548 35.7515C30.7841 35.6141 31.267 35.338 31.6538 34.9515L37.3885 29.2169C37.4393 29.1661 37.4796 29.1059 37.5071 29.0395C37.5346 28.9732 37.5488 28.9021 37.5488 28.8303C37.5488 28.7585 37.5346 28.6874 37.5071 28.6211C37.4796 28.5547 37.4393 28.4948 37.3885 28.444ZM30.8803 34.1784C30.6315 34.4272 30.3207 34.6051 29.98 34.6936C29.6394 34.7821 29.2814 34.7781 28.9428 34.6819L27.1097 34.1606L27.4266 33.8437L29.6113 33.6409C29.7382 33.6298 29.8572 33.5745 29.9475 33.4847L31.5725 31.8597C31.6355 31.7967 31.6821 31.7194 31.7084 31.6343C31.7346 31.5492 31.7397 31.459 31.7232 31.3716C31.7066 31.2841 31.669 31.202 31.6135 31.1324C31.558 31.0628 31.4863 31.0078 31.4047 30.9722L29.0722 29.9531L29.0803 29.945C29.1909 29.8335 29.3283 29.7522 29.4792 29.709C29.6302 29.6658 29.7897 29.662 29.9425 29.6981L32.726 30.3425C32.8163 30.3634 32.9106 30.361 32.9998 30.3354C33.0889 30.3098 33.1701 30.2619 33.2357 30.1962L34.9091 28.5234C35.0451 28.3932 35.2261 28.3205 35.4144 28.3205C35.6027 28.3205 35.7837 28.3932 35.9197 28.5234L36.2285 28.8322L30.8803 34.1784Z" fill="white"/>
</svg>
