<svg width="65" height="65" viewBox="0 0 65 65" fill="none" xmlns="http://www.w3.org/2000/svg">
<path d="M32.5 11.25C27.6197 11.2555 22.9409 13.1966 19.4899 16.6474C16.0389 20.0982 14.0976 24.7769 14.0918 29.6572C14.0918 45.7513 31.4031 53.6061 32.14 53.9306C32.2534 53.9808 32.376 54.0068 32.5 54.0068C32.624 54.0068 32.7466 53.9808 32.86 53.9306C33.5969 53.6041 50.9082 45.7492 50.9082 29.6572C50.9024 24.7769 48.9611 20.0982 45.5101 16.6474C42.0591 13.1966 37.3803 11.2555 32.5 11.25ZM32.5 52.137C30.0396 50.931 15.8691 43.3793 15.8691 29.6572C15.8691 25.2464 17.6213 21.0163 20.7402 17.8974C23.8591 14.7785 28.0892 13.0263 32.5 13.0263C36.9108 13.0263 41.1409 14.7785 44.2598 17.8974C47.3787 21.0163 49.1309 25.2464 49.1309 29.6572C49.1309 43.3605 34.9578 50.9289 32.5 52.137Z" fill="#2437AC"/>
<path d="M32.4999 16.0002C29.7987 16.0002 27.1582 16.8012 24.9123 18.302C22.6664 19.8027 20.9159 21.9357 19.8823 24.4312C18.8486 26.9268 18.5782 29.6729 19.1053 32.3221C19.6323 34.9713 20.9331 37.4048 22.8432 39.3148C24.7533 41.2247 27.1869 42.5253 29.8361 43.0522C32.4854 43.579 35.2315 43.3084 37.7269 42.2746C40.2224 41.2408 42.3553 39.4901 43.8559 37.2441C45.3564 34.9981 46.1572 32.3575 46.157 29.6563C46.1526 26.0357 44.7122 22.5646 42.152 20.0046C39.5917 17.4445 36.1205 16.0044 32.4999 16.0002ZM25.5809 39.3048V38.215C25.5818 36.9693 26.0768 35.7748 26.9575 34.8937C27.8382 34.0127 29.0325 33.5171 30.2782 33.5157H34.7216C35.967 33.5171 37.1609 34.0124 38.0416 34.893C38.9222 35.7736 39.4175 36.9676 39.4188 38.213V39.3048C37.4036 40.7559 34.9832 41.5366 32.4999 41.5366C30.0166 41.5366 27.5962 40.7559 25.5809 39.3048ZM41.1733 37.7631C41.0582 36.1301 40.3291 34.6012 39.1327 33.4839C37.9362 32.3666 36.3611 31.7437 34.7241 31.7404H30.2808C28.6437 31.7437 27.0686 32.3666 25.8722 33.4839C24.6757 34.6012 23.9466 36.1301 23.8315 37.7631C22.2488 36.072 21.1949 33.9552 20.7996 31.6731C20.4042 29.3909 20.6846 27.043 21.6062 24.9181C22.5278 22.7932 24.0504 20.9841 25.9868 19.7133C27.9232 18.4424 30.1888 17.7654 32.505 17.7654C34.8211 17.7654 37.0867 18.4424 39.0231 19.7133C40.9595 20.9841 42.4822 22.7932 43.4038 24.9181C44.3254 27.043 44.6057 29.3909 44.2104 31.6731C43.815 33.9552 42.7611 36.072 41.1784 37.7631H41.1733Z" fill="#2437AC"/>
<path d="M0.548438 16.8645C0.710784 16.9318 0.889459 16.9494 1.06184 16.9152C1.23423 16.8809 1.39258 16.7963 1.51684 16.672L6.67164 11.5177L13.746 18.592C13.9127 18.7588 14.1388 18.8525 14.3747 18.8525C14.4059 18.8526 14.4371 18.8509 14.4681 18.8475C14.5998 18.8337 14.7268 18.7905 14.8396 18.7212C14.9525 18.6519 15.0483 18.5581 15.1201 18.4468C16.0099 17.0737 17.0579 15.8099 18.2427 14.6814C18.3285 14.5996 18.3971 14.5015 18.4444 14.3928C18.4918 14.2841 18.5169 14.1671 18.5183 14.0485C18.5198 13.93 18.4974 13.8124 18.4527 13.7026C18.408 13.5928 18.3417 13.4931 18.2579 13.4093L11.5192 6.67012L16.6735 1.51531C16.7973 1.39114 16.8816 1.23309 16.9158 1.06108C16.9499 0.889069 16.9324 0.710802 16.8654 0.548748C16.7984 0.386694 16.6849 0.248105 16.5392 0.150451C16.3935 0.0527961 16.2222 0.000446327 16.0469 0L0.888672 0C0.653245 -3.45932e-07 0.427439 0.0934182 0.260824 0.259747C0.0942094 0.426076 0.000403589 0.651722 0 0.887148L0 16.0438C-4.97288e-07 16.2195 0.0521066 16.3913 0.14973 16.5373C0.247353 16.6834 0.386106 16.7972 0.548438 16.8645ZM1.77734 1.77734H13.8998L9.63422 6.04297C9.55163 6.12546 9.48611 6.22342 9.4414 6.33125C9.3967 6.43907 9.37369 6.55466 9.37369 6.67139C9.37369 6.78812 9.3967 6.9037 9.4414 7.01153C9.48611 7.11936 9.55163 7.21732 9.63422 7.2998L16.3704 14.0354C15.6009 14.8298 14.8906 15.6794 14.2452 16.5775L7.29981 9.6327C7.21732 9.5501 7.11936 9.48458 7.01153 9.43988C6.9037 9.39518 6.78812 9.37217 6.67139 9.37217C6.55466 9.37217 6.43908 9.39518 6.33125 9.43988C6.22342 9.48458 6.12546 9.5501 6.04297 9.6327L1.77734 13.8983V1.77734Z" fill="#2437AC"/>
<path d="M16.9655 44.6223C16.8892 44.5202 16.7919 44.4357 16.6801 44.3746C16.5682 44.3135 16.4446 44.2771 16.3175 44.2679C16.1904 44.2588 16.0628 44.2771 15.9434 44.3216C15.824 44.3661 15.7155 44.4357 15.6254 44.5258L6.67164 53.4801L1.51684 48.3253C1.39256 48.2011 1.23425 48.1165 1.06192 48.0822C0.889595 48.048 0.710982 48.0656 0.548653 48.1328C0.386324 48.2 0.247565 48.3139 0.149911 48.4599C0.0522562 48.606 8.89906e-05 48.7777 1.30592e-06 48.9534V64.1101C-0.000198975 64.2269 0.0226394 64.3427 0.0672097 64.4507C0.11178 64.5586 0.177207 64.6568 0.259748 64.7395C0.342289 64.8222 0.440323 64.8878 0.548241 64.9325C0.656159 64.9773 0.771843 65.0003 0.888673 65.0003H16.0469C16.2227 65.0005 16.3946 64.9484 16.5408 64.8508C16.687 64.7532 16.801 64.6144 16.8682 64.452C16.9355 64.2895 16.9531 64.1108 16.9187 63.9384C16.8843 63.766 16.7995 63.6076 16.675 63.4835L11.5207 58.3287L20.2348 49.6136C20.3176 49.5307 20.3833 49.4322 20.4279 49.3239C20.4725 49.2155 20.4953 49.0994 20.4949 48.9822C20.4945 48.865 20.4709 48.749 20.4254 48.641C20.38 48.533 20.3137 48.435 20.2302 48.3527C19.0501 47.1927 17.9588 45.9457 16.9655 44.6223ZM9.63422 57.699C9.55164 57.7814 9.48613 57.8793 9.44144 57.9871C9.39674 58.0949 9.37373 58.2104 9.37373 58.3271C9.37373 58.4438 9.39674 58.5594 9.44144 58.6672C9.48613 58.7749 9.55164 58.8729 9.63422 58.9553L13.8998 63.2209H1.77734V51.0994L6.04297 55.3651C6.12546 55.4477 6.22342 55.5132 6.33125 55.5579C6.43908 55.6026 6.55466 55.6256 6.67139 55.6256C6.78812 55.6256 6.9037 55.6026 7.01153 55.5579C7.11936 55.5132 7.21732 55.4477 7.29981 55.3651L16.1682 46.4966C16.8446 47.3442 17.5754 48.175 18.3518 48.9798L9.63422 57.699Z" fill="#2437AC"/>
<path d="M64.4516 48.1324C64.2892 48.0651 64.1106 48.0474 63.9382 48.0817C63.7658 48.116 63.6074 48.2006 63.4832 48.3249L58.3284 53.4797L49.3741 44.5254C49.2837 44.4357 49.1752 44.3663 49.0559 44.3218C48.9365 44.2773 48.809 44.2588 48.682 44.2675C48.5548 44.2767 48.4312 44.3132 48.3194 44.3745C48.2077 44.4359 48.1105 44.5206 48.0345 44.6229C47.0411 45.9455 45.9498 47.1916 44.7698 48.3508C44.6863 48.4331 44.62 48.5311 44.5746 48.6391C44.5292 48.7471 44.5056 48.8631 44.5051 48.9803C44.5047 49.0975 44.5275 49.2136 44.5721 49.322C44.6167 49.4303 44.6824 49.5288 44.7652 49.6117L53.4808 58.3278L48.3265 63.4816C48.2016 63.6056 48.1164 63.7639 48.0817 63.9364C48.0469 64.1089 48.0642 64.2879 48.1314 64.4506C48.1985 64.6133 48.3125 64.7523 48.4588 64.8501C48.6051 64.948 48.7771 65.0001 48.9531 64.9999H64.1113C64.347 64.9999 64.5731 64.9063 64.7397 64.7396C64.9064 64.573 65 64.3469 65 64.1113V48.9531C64.9999 48.7774 64.9478 48.6057 64.8502 48.4596C64.7526 48.3135 64.6139 48.1997 64.4516 48.1324ZM63.2227 63.2226H51.1002L55.3658 58.957C55.4484 58.8745 55.5139 58.7766 55.5586 58.6688C55.6033 58.561 55.6263 58.4455 55.6263 58.3288C55.6263 58.2121 55.6033 58.0966 55.5586 57.9888C55.5139 57.881 55.4484 57.7831 55.3658 57.7006L46.6472 48.9795C47.4246 48.1746 48.1554 47.3438 48.8308 46.4963L57.6992 55.3642C57.7817 55.4468 57.8796 55.5123 57.9875 55.557C58.0953 55.6017 58.2109 55.6247 58.3276 55.6247C58.4443 55.6247 58.5599 55.6017 58.6678 55.557C58.7756 55.5123 58.8735 55.4468 58.956 55.3642L63.2217 51.0986L63.2227 63.2226Z" fill="#2437AC"/>
<path d="M64.1114 3.45554e-07H48.9532C48.7774 -0.000154701 48.6055 0.0518693 48.4593 0.149483C48.3131 0.247097 48.1991 0.385909 48.1318 0.548338C48.0646 0.710768 48.047 0.889506 48.0814 1.06192C48.1158 1.23433 48.2006 1.39265 48.325 1.51684L53.4793 6.67164L46.7422 13.4093C46.6583 13.4931 46.5921 13.5928 46.5474 13.7026C46.5026 13.8124 46.4803 13.93 46.4818 14.0485C46.4832 14.1671 46.5083 14.2841 46.5556 14.3928C46.603 14.5015 46.6716 14.5996 46.7574 14.6814C47.942 15.81 48.99 17.0738 49.88 18.4468C49.9518 18.5581 50.0476 18.6519 50.1605 18.7212C50.2733 18.7905 50.4003 18.8337 50.532 18.8475C50.563 18.8509 50.5942 18.8526 50.6254 18.8525C50.8612 18.8525 51.0874 18.7588 51.2541 18.592L58.3284 11.5177L63.4832 16.672C63.6075 16.7962 63.7658 16.8807 63.9382 16.915C64.1105 16.9493 64.2891 16.9317 64.4514 16.8644C64.6138 16.7972 64.7525 16.6834 64.8502 16.5373C64.9478 16.3913 65 16.2195 65.0001 16.0438V0.887149C64.9997 0.651722 64.9059 0.426076 64.7393 0.259747C64.5726 0.0934185 64.3468 -3.79643e-10 64.1114 3.45554e-07ZM63.2227 13.8983L58.9571 9.63269C58.8746 9.5501 58.7767 9.48458 58.6688 9.43988C58.561 9.39517 58.4454 9.37217 58.3287 9.37217C58.212 9.37217 58.0964 9.39517 57.9886 9.43988C57.8807 9.48458 57.7828 9.5501 57.7003 9.63269L50.7549 16.5775C50.1095 15.6794 49.3992 14.8298 48.6297 14.0354L55.3659 7.29879C55.4485 7.2163 55.514 7.11834 55.5587 7.01051C55.6034 6.90268 55.6264 6.7871 55.6264 6.67037C55.6264 6.55364 55.6034 6.43806 55.5587 6.33023C55.514 6.2224 55.4485 6.12444 55.3659 6.04195L51.1002 1.77633H63.2227V13.8983Z" fill="#2437AC"/>
<path d="M32.5 20.3124C31.5026 20.2568 30.5115 20.5018 29.6549 21.0157C28.7983 21.5295 28.1156 22.2886 27.6951 23.1947C27.2747 24.1008 27.1358 25.1123 27.2964 26.0982C27.4571 27.0841 27.9099 27.9991 28.5963 28.7248C29.2827 29.4506 30.1711 29.9536 31.1465 30.1689C32.1219 30.3843 33.1395 30.3019 34.0677 29.9325C34.9958 29.5632 35.7917 28.9238 36.3525 28.0971C36.9132 27.2704 37.213 26.2945 37.213 25.2956C37.2464 24.0105 36.7691 22.7645 35.8858 21.8305C35.0024 20.8966 33.785 20.3507 32.5 20.3124ZM32.5 28.5009C31.854 28.5578 31.2058 28.4182 30.6406 28.1004C30.0753 27.7825 29.6192 27.3013 29.3321 26.7198C29.045 26.1383 28.9404 25.4836 29.0318 24.8416C29.1232 24.1995 29.4065 23.6001 29.8446 23.1218C30.2826 22.6436 30.8549 22.3088 31.4864 22.1615C32.118 22.0141 32.7793 22.061 33.3837 22.296C33.9882 22.531 34.5075 22.9431 34.8737 23.4784C35.2398 24.0137 35.4357 24.6471 35.4357 25.2956C35.4687 26.1091 35.1786 26.9027 34.6286 27.5031C34.0786 28.1034 33.3133 28.4618 32.5 28.4999V28.5009Z" fill="#2437AC"/>
</svg>
