<svg width="1290" height="48" viewBox="0 0 1290 48" fill="none" xmlns="http://www.w3.org/2000/svg">
<path d="M1289.73 23.6241V19.03C1288.83 19.0659 1286.14 19.4326 1284.94 20.8633V19.3463H1279.91V34.6528H1284.94V27.4201C1285.66 24.0123 1288.92 23.6528 1289.75 23.6241H1289.73ZM1244.65 23.8038C1244.11 23.3208 1243.5 22.932 1242.83 22.6535C1242.28 22.385 1241.67 22.2473 1241.06 22.2509C1240.61 22.2464 1240.16 22.3421 1239.74 22.5313C1239.56 22.6075 1239.4 22.7408 1239.29 22.9123C1239.18 23.0838 1239.13 23.285 1239.14 23.4875C1239.14 23.6928 1239.2 23.8942 1239.32 24.0615C1239.44 24.2287 1239.61 24.3527 1239.8 24.4149C1240.5 24.6749 1241.23 24.8816 1241.96 25.0332C1242.56 25.1627 1243.14 25.3381 1243.71 25.5581C1244.29 25.7768 1244.82 26.0797 1245.31 26.4567C1245.78 26.8287 1246.17 27.2936 1246.46 27.8228C1246.76 28.4142 1246.91 29.0717 1246.89 29.7352C1246.92 30.5454 1246.74 31.3497 1246.36 32.0667C1245.98 32.7837 1245.42 33.3881 1244.73 33.8188C1244.07 34.2459 1243.34 34.5504 1242.58 34.7175C1241.8 34.9029 1241.01 34.997 1240.22 34.9979C1238.96 34.998 1237.71 34.794 1236.52 34.394C1235.38 34.0415 1234.35 33.4312 1233.49 32.611L1235.98 29.4979C1236.58 30.0517 1237.27 30.5077 1238.02 30.8495C1238.67 31.1782 1239.39 31.3482 1240.13 31.3456C1240.55 31.3412 1240.97 31.2405 1241.35 31.0509C1241.55 30.9605 1241.71 30.8129 1241.82 30.6279C1241.93 30.4428 1241.98 30.2291 1241.96 30.0156C1241.96 29.7879 1241.89 29.565 1241.76 29.3771C1241.64 29.1893 1241.45 29.0457 1241.24 28.9659C1240.49 28.6539 1239.71 28.4132 1238.92 28.2469C1238.37 28.1179 1237.83 27.9522 1237.3 27.7509C1236.78 27.5491 1236.29 27.2677 1235.86 26.9169C1235.45 26.5638 1235.11 26.1341 1234.86 25.6515C1234.57 25.0743 1234.44 24.4382 1234.45 23.7966C1234.43 22.9668 1234.63 22.1464 1235.04 21.4241C1235.43 20.774 1235.96 20.2207 1236.59 19.8064C1237.22 19.3859 1237.91 19.077 1238.64 18.8934C1239.38 18.7004 1240.14 18.6014 1240.9 18.5986C1242.05 18.5974 1243.2 18.7794 1244.3 19.1378C1245.34 19.4646 1246.3 20.0195 1247.11 20.7626L1244.65 23.8038ZM1274.11 25.0117C1274.1 24.3071 1273.85 23.6272 1273.39 23.092C1273.1 22.7895 1272.74 22.556 1272.34 22.4081C1271.94 22.2602 1271.52 22.2016 1271.1 22.2365C1270.64 22.2326 1270.18 22.3105 1269.75 22.4666C1269.36 22.6096 1269 22.8215 1268.68 23.092C1268.39 23.3564 1268.14 23.6733 1267.96 24.0267C1267.8 24.3334 1267.7 24.6676 1267.67 25.0117H1274.11ZM1278.75 27.0894V27.7005C1278.76 27.8945 1278.76 28.0889 1278.75 28.2829H1267.65C1267.68 28.6937 1267.81 29.0907 1268.03 29.4404C1268.24 29.7914 1268.52 30.0986 1268.85 30.3463C1269.2 30.604 1269.58 30.8054 1269.99 30.943C1270.41 31.0867 1270.85 31.1596 1271.29 31.1587C1271.99 31.1791 1272.69 31.026 1273.32 30.7129C1273.85 30.436 1274.31 30.0427 1274.66 29.5626L1278.17 31.7698C1277.44 32.8103 1276.44 33.6389 1275.29 34.1711C1274.02 34.7444 1272.63 35.0268 1271.23 34.9979C1270.13 35.0043 1269.02 34.822 1267.98 34.4587C1266.99 34.122 1266.08 33.5917 1265.3 32.8986C1264.52 32.1974 1263.9 31.3365 1263.49 30.375C1263.03 29.2937 1262.81 28.1275 1262.83 26.9528C1262.81 25.7927 1263.03 24.6413 1263.47 23.5666C1263.87 22.6017 1264.47 21.7286 1265.22 20.9999C1265.97 20.2876 1266.86 19.7307 1267.83 19.3607C1268.87 18.9631 1269.98 18.7656 1271.1 18.7783C1272.16 18.7684 1273.21 18.9612 1274.2 19.3463C1275.11 19.7084 1275.94 20.2681 1276.62 20.9855C1277.32 21.7354 1277.85 22.6182 1278.2 23.5809C1278.59 24.7032 1278.79 25.886 1278.77 27.075L1278.75 27.0894ZM1218.12 23.4947V18.8718H1213.8V15.4424C1213.7 13.4653 1212.76 11.9914 1208.94 11.9914V29.7999C1208.94 30.5135 1209.03 31.2243 1209.22 31.9136C1209.38 32.5192 1209.67 33.0813 1210.08 33.56C1210.51 34.0368 1211.06 34.3977 1211.67 34.6097C1212.52 34.8802 1213.41 35.0114 1214.3 34.9979C1215.6 35.0138 1216.89 34.7996 1218.12 34.3652V30.2672C1217.3 30.4768 1216.46 30.5879 1215.62 30.5979C1215.35 30.6304 1215.09 30.6012 1214.84 30.5126C1214.59 30.424 1214.36 30.2784 1214.18 30.0875C1213.89 29.6207 1213.76 29.0733 1213.81 28.5273V23.4947H1218.12Z" fill="#008FB4"/>
<path d="M1258.49 26.4856L1264.17 19.2961H1258.16L1253.12 25.6516V15.5863C1253.03 13.5157 1252.13 11.9915 1248.26 11.9915V34.6529H1253.12V27.334L1258.88 34.6529H1264.95L1258.49 26.4856ZM1232.63 34.6386V24.5013C1232.63 20.1373 1229.17 18.57 1226.1 18.57C1223.68 18.4493 1221.3 19.2164 1219.41 20.7268L1221.95 23.8758C1222.97 22.9783 1224.25 22.4227 1225.6 22.2869C1227.45 22.2869 1227.83 23.3438 1227.83 24.6954V24.9543H1226.17C1221.9 24.9543 1219.33 26.802 1219.33 30.0948C1219.33 33.6895 1222.5 34.6242 1226.35 34.6242L1232.63 34.6386ZM1227.83 31.4536H1226.24C1224.99 31.4536 1224.23 30.936 1224.23 29.8647C1224.23 28.7935 1224.99 28.1752 1226.52 28.1752H1227.83V31.4536ZM1191.21 14.7739C1191.21 15.5175 1191.51 16.2307 1192.04 16.7566C1192.56 17.2824 1193.28 17.5778 1194.02 17.5778C1194.76 17.5778 1195.48 17.2824 1196 16.7566C1196.53 16.2307 1196.82 15.5175 1196.82 14.7739C1196.82 14.0302 1196.53 13.3171 1196 12.7912C1195.48 12.2654 1194.76 11.97 1194.02 11.97C1193.28 11.97 1192.56 12.2654 1192.04 12.7912C1191.51 13.3171 1191.21 14.0302 1191.21 14.7739ZM1191.69 18.9079H1191.48V34.6529H1196.55V22.2222C1196.41 20.3098 1195.43 18.9079 1191.69 18.9079ZM1207.83 23.6242V19.0301C1206.94 19.066 1204.24 19.4327 1203.04 20.8634V19.3464H1198.01V34.6529H1203.04V27.5425C1203.04 27.5018 1203.04 27.4609 1203.04 27.4203C1203.76 24.0124 1207.01 23.653 1207.84 23.6242H1207.83ZM1288.27 32.3451H1287.99V32.8771H1288.27C1288.31 32.8791 1288.35 32.8736 1288.38 32.8612C1288.41 32.8487 1288.44 32.8294 1288.47 32.8045C1288.5 32.7796 1288.52 32.7496 1288.53 32.7163C1288.55 32.6831 1288.55 32.6473 1288.55 32.6111C1288.55 32.5749 1288.55 32.5391 1288.53 32.5059C1288.52 32.4726 1288.5 32.4426 1288.47 32.4177C1288.44 32.3928 1288.41 32.3736 1288.38 32.3611C1288.35 32.3486 1288.31 32.3431 1288.27 32.3451ZM1288.55 33.819L1288.21 33.1H1287.99V33.819H1287.68V32.0719H1288.35C1288.42 32.07 1288.5 32.0825 1288.56 32.1088C1288.63 32.1352 1288.69 32.1747 1288.74 32.225C1288.79 32.2754 1288.83 32.3356 1288.86 32.4019C1288.89 32.4683 1288.9 32.5394 1288.9 32.6111C1288.9 32.7157 1288.87 32.818 1288.81 32.9032C1288.75 32.9884 1288.66 33.0523 1288.56 33.0856L1288.94 33.8046L1288.55 33.819ZM1288.22 31.6621C1287.96 31.6492 1287.7 31.7152 1287.48 31.8517C1287.25 31.9882 1287.07 32.1889 1286.96 32.4278C1286.85 32.6668 1286.82 32.9332 1286.86 33.1925C1286.9 33.4518 1287.02 33.6922 1287.21 33.8828C1287.39 34.0733 1287.62 34.2052 1287.88 34.2614C1288.13 34.3177 1288.4 34.2957 1288.65 34.1983C1288.89 34.1009 1289.1 33.9326 1289.25 33.715C1289.39 33.4975 1289.47 33.2407 1289.47 32.9778C1289.48 32.8091 1289.45 32.6412 1289.39 32.4836C1289.33 32.326 1289.24 32.182 1289.12 32.0597C1289.01 31.9374 1288.87 31.8393 1288.71 31.7711C1288.56 31.7029 1288.39 31.6658 1288.22 31.6621ZM1288.22 34.5954C1287.9 34.6054 1287.59 34.5197 1287.31 34.3494C1287.04 34.1791 1286.83 33.9317 1286.7 33.6389C1286.57 33.346 1286.52 33.0208 1286.58 32.7046C1286.63 32.3884 1286.78 32.0956 1287 31.8632C1287.22 31.6308 1287.51 31.4695 1287.82 31.3997C1288.13 31.3299 1288.46 31.3547 1288.76 31.4711C1289.06 31.5875 1289.32 31.7902 1289.5 32.0533C1289.68 32.3165 1289.78 32.6283 1289.79 32.949C1289.8 33.3711 1289.63 33.7783 1289.34 34.0815C1289.05 34.3846 1288.65 34.5591 1288.22 34.5667V34.5954ZM1177.33 25.7739L1179.58 19.3033L1181.83 25.7739H1177.33ZM1181.95 11.9915H1177.43L1170.44 30.4399H1167.7C1165.83 30.5192 1163.97 30.0547 1162.36 29.1026C1161.71 28.6898 1161.19 28.1134 1160.84 27.4325C1160.5 26.7516 1160.34 25.9906 1160.38 25.2275V23.0706H1158.15C1156.08 23.0138 1154.09 22.2212 1152.55 20.8347C1151.34 19.5709 1150.59 17.9471 1150.39 16.2118H1166.02C1168.86 16.2118 1169.91 17.5994 1170.56 18.8432C1170.88 19.467 1171.12 20.1289 1171.28 20.8131L1173.26 15.5863C1173.26 15.5863 1171.6 11.9915 1166.02 11.9915H1146V14.1484C1146 18.2177 1147.21 21.4817 1149.59 23.8255C1151.47 25.5986 1153.84 26.7575 1156.39 27.1471C1157.29 31.7627 1161.53 34.6386 1167.7 34.6386H1174.11L1175.55 30.483H1183.58L1185.02 34.6314H1190.5L1181.95 11.9915Z" fill="#008FB4"/>
<path fill-rule="evenodd" clip-rule="evenodd" d="M986.957 31.9803C987.033 32.8499 987.728 33.9567 988.934 33.9567H989.638C989.912 33.9567 990.136 33.7327 990.136 33.4592V17.9535H990.133C990.119 17.6922 989.903 17.483 989.638 17.483H987.454C987.19 17.483 986.974 17.6922 986.96 17.9535H986.957V19.2134C985.618 17.5635 983.508 16.8787 981.392 16.8787C976.581 16.8787 972.682 20.7811 972.682 25.5953C972.682 30.4099 976.581 34.3124 981.392 34.3124C983.508 34.3124 985.815 33.4911 986.957 31.9784V31.9803ZM981.4 31.2617C978.341 31.2617 975.861 28.725 975.861 25.5953C975.861 22.4663 978.341 19.9295 981.4 19.9295C984.46 19.9295 986.94 22.4663 986.94 25.5953C986.94 28.725 984.46 31.2617 981.4 31.2617Z" fill="#0D0E10"/>
<path fill-rule="evenodd" clip-rule="evenodd" d="M969.919 24.49C969.919 19.9672 967.068 16.916 962.522 16.916C960.352 16.916 958.573 18.172 957.944 19.2509C957.808 18.4073 957.361 17.5205 955.973 17.5205H955.266C954.992 17.5205 954.769 17.7447 954.769 18.0182V32.0191C954.769 32.0196 954.769 32.0206 954.769 32.0213V33.5252H954.771C954.786 33.786 955.002 33.9955 955.266 33.9955H957.45C957.484 33.9955 957.517 33.9915 957.548 33.9854C957.563 33.9825 957.576 33.9768 957.59 33.9729C957.607 33.9679 957.624 33.964 957.639 33.9576C957.658 33.9496 957.676 33.9388 957.694 33.9287C957.703 33.9232 957.712 33.9194 957.721 33.9138C957.743 33.8997 957.763 33.8827 957.782 33.8655C957.785 33.8623 957.789 33.8601 957.792 33.8572C957.814 33.8362 957.834 33.813 957.851 33.7889C957.906 33.7138 957.939 33.6229 957.945 33.5252H957.948V24.3656C957.948 21.9365 959.915 19.9672 962.343 19.9672C964.77 19.9672 966.738 21.9365 966.738 24.3656L966.74 32.0218L966.74 32.0191C966.74 32.0259 966.742 32.0329 966.742 32.0401V33.5252H966.744C966.759 33.786 966.975 33.9955 967.239 33.9955H969.424C969.457 33.9955 969.49 33.9915 969.521 33.9854C969.534 33.983 969.546 33.9777 969.559 33.9742C969.577 33.969 969.595 33.9646 969.612 33.9576C969.63 33.9502 969.647 33.9399 969.663 33.9304C969.674 33.9246 969.685 33.9204 969.694 33.9138C969.715 33.9005 969.733 33.8844 969.751 33.8687C969.756 33.8643 969.761 33.8612 969.765 33.8568C969.786 33.8368 969.805 33.8152 969.821 33.7926C969.823 33.7909 969.824 33.7896 969.825 33.7879C969.879 33.7134 969.912 33.6235 969.918 33.5265C969.918 33.5258 969.918 33.5252 969.918 33.5252H969.921L969.919 24.49Z" fill="#0D0E10"/>
<path fill-rule="evenodd" clip-rule="evenodd" d="M947.168 31.9803C947.244 32.8498 947.94 33.9566 949.145 33.9566H949.85C950.123 33.9566 950.347 33.7327 950.347 33.4591V17.9535H950.344C950.33 17.6922 950.114 17.483 949.85 17.483H947.665C947.401 17.483 947.185 17.6922 947.17 17.9535H947.168V19.2134C945.829 17.5635 943.719 16.8787 941.603 16.8787C936.792 16.8787 932.893 20.7811 932.893 25.5954C932.893 30.4098 936.792 34.3124 941.603 34.3124C943.719 34.3124 946.025 33.4912 947.168 31.9783L947.168 31.9803ZM941.611 31.2616C938.552 31.2616 936.072 28.725 936.072 25.5954C936.072 22.4663 938.552 19.9295 941.611 19.9295C944.671 19.9295 947.15 22.4663 947.15 25.5954C947.15 28.725 944.671 31.2616 941.611 31.2616Z" fill="#0D0E10"/>
<path fill-rule="evenodd" clip-rule="evenodd" d="M919.974 29.7596C921.432 30.7707 923.024 31.2618 924.554 31.2618C926.011 31.2618 927.518 30.5057 927.518 29.1896C927.518 27.4325 924.235 27.1591 922.172 26.4575C920.109 25.7559 918.332 24.3055 918.332 21.9568C918.332 18.3628 921.532 16.8784 924.519 16.8784C926.411 16.8784 928.363 17.5029 929.629 18.3975C930.065 18.728 929.8 19.1075 929.8 19.1075L928.591 20.8346C928.455 21.0291 928.218 21.1972 927.877 20.9866C927.536 20.7762 926.341 19.9293 924.519 19.9293C922.696 19.9293 921.599 20.7715 921.599 21.8153C921.599 23.067 923.025 23.4607 924.696 23.8874C927.608 24.6729 930.785 25.6171 930.785 29.1896C930.785 32.3561 927.825 34.3131 924.554 34.3131C922.075 34.3131 919.965 33.6059 918.195 32.306C917.826 31.9367 918.084 31.5938 918.084 31.5938L919.286 29.8755C919.531 29.5542 919.839 29.6663 919.974 29.7596Z" fill="#0D0E10"/>
<path fill-rule="evenodd" clip-rule="evenodd" d="M911.575 31.9803C911.652 32.8498 912.347 33.9566 913.552 33.9566H914.257C914.53 33.9566 914.754 33.7327 914.754 33.4591V17.9535H914.751C914.737 17.6922 914.521 17.483 914.257 17.483H912.072C911.808 17.483 911.592 17.6922 911.578 17.9535H911.575V19.2134C910.237 17.5635 908.126 16.8787 906.01 16.8787C901.2 16.8787 897.3 20.7811 897.3 25.5954C897.3 30.4098 901.2 34.3124 906.01 34.3124C908.126 34.3124 910.433 33.4912 911.575 31.9783L911.575 31.9803ZM906.019 31.2616C902.959 31.2616 900.479 28.725 900.479 25.5954C900.479 22.4663 902.959 19.9295 906.019 19.9295C909.078 19.9295 911.558 22.4663 911.558 25.5954C911.558 28.725 909.078 31.2616 906.019 31.2616Z" fill="#0D0E10"/>
<path fill-rule="evenodd" clip-rule="evenodd" d="M885.09 26.1881C881.853 26.1881 879.228 28.8123 879.228 32.0497C879.228 35.2868 881.853 37.911 885.09 37.911C888.327 37.911 890.951 35.2868 890.951 32.0497C890.951 28.8123 888.327 26.1881 885.09 26.1881ZM869.861 26.1886C866.624 26.1886 864 28.8123 864 32.0497C864 35.2868 866.624 37.911 869.861 37.911C873.099 37.911 875.723 35.2868 875.723 32.0497C875.723 28.8123 873.099 26.1886 869.861 26.1886ZM883.337 18.8612C883.337 22.0986 880.713 24.7231 877.475 24.7231C874.238 24.7231 871.614 22.0986 871.614 18.8612C871.614 15.6245 874.238 13 877.475 13C880.713 13 883.337 15.6245 883.337 18.8612Z" fill="#F06A6A"/>
<path d="M605.309 13.1062V22.1939H596.962V13.1062H593V34.7995H596.962V26.0069H605.309V34.7995H609.271V13.1062H605.309Z" fill="#33475B"/>
<path d="M621.952 27.7867C621.952 28.6561 621.607 29.4899 620.992 30.1046C620.377 30.7194 619.544 31.0647 618.674 31.0647C617.805 31.0647 616.971 30.7194 616.356 30.1046C615.741 29.4899 615.396 28.6561 615.396 27.7867V18.4951H611.638V27.7867C611.638 29.6511 612.378 31.4392 613.696 32.7575C615.015 34.0759 616.803 34.8165 618.667 34.8165C620.532 34.8165 622.32 34.0759 623.638 32.7575C624.957 31.4392 625.697 29.6511 625.697 27.7867V18.4951H621.952V27.7867Z" fill="#33475B"/>
<path d="M649.801 19.4527C649.801 17.5482 651.061 16.9444 652.441 16.9444C653.553 16.9444 655.023 17.7908 655.984 18.8178L658.446 15.9174C657.217 14.2555 654.724 13.1062 652.684 13.1062C648.607 13.1062 645.658 15.4942 645.658 19.4527C645.658 26.797 654.635 24.4673 654.635 28.5773C654.635 29.845 653.404 30.9652 651.994 30.9652C649.772 30.9652 649.051 29.878 648.03 28.7287L645.299 31.569C647.046 33.7143 649.201 34.8034 651.783 34.8034C655.656 34.8034 658.772 32.3863 658.772 28.6084C658.772 20.4545 649.795 22.988 649.795 19.4527" fill="#33475B"/>
<path d="M705.337 31.3338C703.116 31.3338 702.485 30.3729 702.485 28.9013V22.3878H705.937V19.0874H702.485V14.7329L698.674 16.4432V29.7108C698.674 33.1044 701.015 34.8148 704.226 34.8148C704.73 34.824 705.233 34.7837 705.729 34.6944L706.659 31.2717C706.239 31.3008 705.758 31.33 705.337 31.33" fill="#33475B"/>
<path d="M636.259 18.6046C634.398 18.6046 633.099 19.1443 631.843 20.3771V13.2366H628.078V26.4712C628.078 31.4257 631.66 34.8193 635.685 34.8193C640.15 34.8193 644.077 31.3655 644.077 26.7139C644.077 22.1205 640.463 18.6066 636.259 18.6066V18.6046ZM636.236 31.0316C635.391 31.0316 634.566 30.7811 633.863 30.3118C633.161 29.8425 632.613 29.1754 632.29 28.395C631.967 27.6145 631.882 26.7558 632.047 25.9272C632.212 25.0987 632.619 24.3377 633.216 23.7404C633.813 23.143 634.574 22.7363 635.403 22.5715C636.231 22.4067 637.09 22.4912 637.871 22.8145C638.651 23.1378 639.318 23.6852 639.787 24.3876C640.257 25.09 640.507 25.9157 640.507 26.7605C640.507 27.8933 640.057 28.9796 639.256 29.7806C638.455 30.5816 637.369 31.0316 636.236 31.0316Z" fill="#33475B"/>
<path d="M677.134 26.515C677.134 21.8556 673.214 18.4096 668.741 18.4096C664.716 18.4096 661.134 21.8032 661.134 26.7577V40.0001H664.899V32.8498C666.153 34.0807 667.454 34.6224 669.314 34.6224C673.517 34.6224 677.132 31.1103 677.132 26.515H677.134ZM673.569 26.4684C673.569 27.3132 673.319 28.139 672.849 28.8413C672.38 29.5437 671.713 30.0912 670.933 30.4144C670.152 30.7377 669.293 30.8223 668.465 30.6575C667.636 30.4927 666.875 30.0859 666.278 29.4886C665.681 28.8912 665.274 28.1302 665.109 27.3017C664.944 26.4732 665.029 25.6144 665.352 24.834C665.675 24.0535 666.223 23.3865 666.925 22.9171C667.628 22.4478 668.453 22.1973 669.298 22.1973C670.431 22.1973 671.517 22.6473 672.318 23.4483C673.119 24.2493 673.569 25.3357 673.569 26.4684Z" fill="#33475B"/>
<path d="M689.257 18.3496V14.6066C689.751 14.3756 690.17 14.0088 690.465 13.5489C690.759 13.089 690.916 12.555 690.919 12.009V11.9216C690.917 11.1587 690.613 10.4276 690.073 9.88807C689.534 9.34858 688.803 9.04459 688.04 9.04254H687.952C687.189 9.04459 686.458 9.34858 685.919 9.88807C685.379 10.4276 685.075 11.1587 685.073 11.9216V12.009C685.075 12.555 685.233 13.089 685.527 13.5489C685.821 14.0088 686.24 14.3756 686.735 14.6066V18.3496C685.313 18.5671 683.973 19.1565 682.852 20.0581L672.574 12.0614C672.647 11.7976 672.687 11.5256 672.691 11.2519C672.692 10.6095 672.502 9.98128 672.146 9.44673C671.789 8.91217 671.283 8.49527 670.689 8.24873C670.096 8.00219 669.443 7.93708 668.813 8.06166C668.183 8.18623 667.604 8.49487 667.149 8.94857C666.694 9.40226 666.384 9.98063 666.258 10.6105C666.132 11.2404 666.195 11.8936 666.441 12.4873C666.686 13.0811 667.101 13.5889 667.635 13.9464C668.169 14.3039 668.797 14.4952 669.439 14.496C670.003 14.4939 670.557 14.3432 671.044 14.0591L681.149 21.9257C680.239 23.2989 679.764 24.9146 679.787 26.5619C679.809 28.2091 680.328 29.8113 681.276 31.1591L678.2 34.2343C677.954 34.1557 677.697 34.1138 677.438 34.11C676.91 34.11 676.393 34.2666 675.954 34.5599C675.515 34.8532 675.173 35.2701 674.971 35.7579C674.769 36.2457 674.716 36.7824 674.819 37.3002C674.922 37.818 675.177 38.2937 675.55 38.667C675.923 39.0403 676.399 39.2946 676.917 39.3976C677.435 39.5006 677.971 39.4477 678.459 39.2457C678.947 39.0436 679.364 38.7015 679.657 38.2625C679.95 37.8235 680.107 37.3074 680.107 36.7794C680.103 36.5204 680.062 36.2633 679.983 36.0165L683.025 32.9743C684.018 33.7328 685.171 34.2544 686.397 34.4993C687.622 34.7441 688.887 34.7058 690.095 34.3871C691.304 34.0685 692.423 33.478 693.369 32.6607C694.314 31.8434 695.06 30.8209 695.55 29.6713C696.04 28.5217 696.26 27.2754 696.195 26.0275C696.13 24.7796 695.78 23.5631 695.173 22.4709C694.566 21.3786 693.718 20.4395 692.692 19.7253C691.667 19.0111 690.492 18.5405 689.257 18.3496ZM687.997 30.6621C687.164 30.6621 686.351 30.4152 685.658 29.9527C684.966 29.4902 684.427 28.8329 684.108 28.0638C683.79 27.2947 683.706 26.4484 683.869 25.632C684.031 24.8155 684.432 24.0655 685.021 23.4769C685.609 22.8883 686.359 22.4874 687.176 22.325C687.992 22.1626 688.838 22.2459 689.608 22.5645C690.377 22.8831 691.034 23.4225 691.496 24.1147C691.959 24.8069 692.206 25.6206 692.206 26.4531C692.206 27.5694 691.762 28.6399 690.973 29.4293C690.184 30.2186 689.113 30.6621 687.997 30.6621Z" fill="#FF7A59"/>
<path d="M339.493 29.3774C339.493 30.0902 339.342 30.7525 339.041 31.3649C338.739 31.9688 338.312 32.4885 337.776 32.908C337.232 33.3357 336.587 33.6627 335.841 33.8974C335.096 34.1321 334.275 34.2496 333.387 34.2496C332.323 34.2496 331.368 34.107 330.531 33.8136C329.693 33.5284 328.847 33.042 328.001 32.3709L329.4 30.098C330.07 30.6599 330.673 31.0704 331.218 31.3309C331.754 31.5909 332.307 31.7167 332.877 31.7167C333.572 31.7167 334.125 31.5405 334.552 31.18C334.979 30.8193 335.18 30.3414 335.18 29.7293C335.18 29.4694 335.138 29.2262 335.063 28.9998C334.988 28.7733 334.845 28.5385 334.644 28.2953C334.443 28.0606 334.158 27.7922 333.798 27.5155C333.446 27.2387 332.986 26.8865 332.416 26.4755C331.989 26.1736 331.562 25.855 331.151 25.536C330.741 25.2089 330.372 24.8651 330.029 24.496C329.694 24.127 329.426 23.7161 329.216 23.2551C329.015 22.8023 328.906 22.2737 328.906 21.6951C328.906 21.0242 329.049 20.4035 329.325 19.8497C329.601 19.296 329.987 18.8266 330.473 18.4328C330.958 18.0387 331.537 17.7368 332.223 17.5191C332.901 17.301 333.638 17.192 334.442 17.192C335.288 17.192 336.101 17.301 336.888 17.5275C337.675 17.7539 338.404 18.0809 339.082 18.5168L337.817 20.5631C336.955 19.9592 336.041 19.6493 335.087 19.6493C334.509 19.6493 334.023 19.8002 333.646 20.1021C333.269 20.404 333.076 20.7814 333.076 21.2425C333.076 21.6786 333.244 22.0728 333.579 22.4168C333.914 22.7689 334.492 23.247 335.313 23.8843C336.142 24.4881 336.83 25.0248 337.366 25.4772C337.91 25.93 338.337 26.3661 338.655 26.7688C338.974 27.1713 339.183 27.5738 339.309 27.9928C339.434 28.4204 339.493 28.8732 339.493 29.3768L339.493 29.3774ZM353.858 25.5454C353.858 26.1743 353.791 26.8538 353.657 27.5827C353.531 28.3123 353.305 28.9836 352.987 29.604C352.668 30.2246 352.258 30.7365 351.747 31.1303C351.236 31.5328 350.582 31.734 349.804 31.734C348.497 31.734 347.467 31.2141 346.713 30.166C345.959 29.126 345.582 27.6922 345.582 25.8727C345.582 24.0024 345.959 22.5269 346.73 21.4282C347.492 20.3296 348.531 19.7847 349.837 19.7847C351.077 19.7847 352.057 20.3046 352.777 21.3278C353.497 22.3589 353.858 23.7678 353.858 25.5456L353.858 25.5454ZM358.397 25.386C358.397 24.17 358.221 23.0633 357.878 22.074C357.526 21.0758 357.04 20.2207 356.395 19.4998C355.75 18.7786 354.996 18.2251 354.117 17.8224C353.238 17.4198 352.266 17.2187 351.202 17.2187C350.03 17.2187 349 17.4451 348.112 17.8812C347.224 18.3256 346.394 19.0216 345.641 19.9772L345.616 17.6039H341.436V41.995H345.608V31.6928C346.018 32.1707 346.412 32.5732 346.797 32.8999C347.174 33.2269 347.559 33.4952 347.952 33.6965C348.346 33.8977 348.756 34.0487 349.192 34.1326C349.627 34.2164 350.096 34.2584 350.591 34.2584C351.696 34.2584 352.735 34.0319 353.689 33.5959C354.644 33.1514 355.473 32.531 356.168 31.7256C356.864 30.9203 357.408 29.9816 357.802 28.9168C358.204 27.843 358.397 26.6608 358.397 25.3861L358.397 25.386ZM360.257 33.8642H364.545V9.99756H360.257V33.8642ZM382.835 33.8726V17.5881H378.547V26.3508C378.547 27.1307 378.513 27.7348 378.446 28.1624C378.379 28.59 378.27 28.9673 378.119 29.3197C377.516 30.661 376.402 31.341 374.786 31.341C373.521 31.341 372.642 30.8882 372.139 29.9739C371.938 29.6301 371.804 29.236 371.729 28.7997C371.653 28.3637 371.611 27.7348 371.611 26.9046V17.589H367.323V26.8424C367.323 27.4712 367.332 28.0077 367.34 28.4352C367.348 28.8629 367.382 29.257 367.424 29.5926C367.466 29.928 367.516 30.2299 367.575 30.4904C367.625 30.7503 367.709 31.0018 367.818 31.2367C368.211 32.2349 368.84 32.9896 369.719 33.5007C370.598 34.0121 371.679 34.2638 372.952 34.2638C374.099 34.2638 375.113 34.0624 375.984 33.66C376.855 33.2575 377.701 32.6031 378.522 31.6893L378.53 33.8697L382.835 33.8781L382.835 33.8726ZM401.315 33.8642V24.6287C401.315 23.9997 401.306 23.4633 401.298 23.0189C401.289 22.5744 401.264 22.1888 401.214 21.8616C401.172 21.5344 401.114 21.2494 401.055 21.0062C400.988 20.7546 400.913 20.5114 400.829 20.2766C400.435 19.3041 399.807 18.5495 398.927 18.0206C398.048 17.4917 396.967 17.224 395.686 17.224C394.538 17.224 393.525 17.4252 392.654 17.8277C391.783 18.2302 390.936 18.8926 390.116 19.7984L390.108 17.6179H385.794V33.8668H390.116V25.0952C390.116 24.3405 390.141 23.745 390.199 23.3255C390.25 22.9062 390.358 22.512 390.509 22.1344C390.786 21.4802 391.221 20.9939 391.799 20.6588C392.377 20.3237 393.064 20.1557 393.867 20.1557C395.132 20.1557 396.011 20.6085 396.515 21.5228C396.707 21.8666 396.841 22.2608 396.917 22.6881C396.992 23.1159 397.034 23.753 397.034 24.5752V33.8464L401.314 33.8548L401.315 33.8642ZM419.057 32.7904L412.524 24.6642L418.043 18.7442L414.794 17.3442L409.048 24.0109H408.596V10.002H404.274V33.8687H408.596V25.2233L415.061 34.1922L419.056 32.7913L419.057 32.7904ZM435.759 26.954V24.2953L422.763 17.7709V20.6971L432.835 25.6029L422.763 30.5753V33.4349L435.759 26.9531V26.954ZM424.026 13.5496C423.23 13.5496 422.585 14.2036 422.585 15.0091C422.585 15.8309 423.23 16.4767 424.026 16.4767C424.83 16.4767 425.467 15.831 425.467 15.0091C425.467 14.1957 424.83 13.5496 424.026 13.5496ZM424.035 13.776C424.679 13.776 425.198 14.3294 425.198 15.0168C425.198 15.7045 424.679 16.2577 424.035 16.2497C423.381 16.2497 422.861 15.7047 422.861 15.0088C422.861 14.3296 423.381 13.776 424.035 13.776ZM423.758 15.16H423.933C424.143 15.16 424.243 15.2354 424.285 15.4451C424.319 15.6632 424.361 15.8057 424.395 15.856H424.671C424.645 15.8057 424.603 15.7051 424.571 15.4536C424.537 15.2104 424.444 15.0846 424.294 15.0594V15.0426C424.47 14.9923 424.612 14.8582 424.612 14.6485C424.612 14.4976 424.562 14.3802 424.461 14.313C424.361 14.2376 424.202 14.1873 423.959 14.1873C423.766 14.1873 423.632 14.204 423.499 14.2292V15.8559H423.758V15.1599V15.16ZM423.758 14.4052C423.8 14.3968 423.859 14.3884 423.942 14.3884C424.235 14.3884 424.336 14.531 424.336 14.6736C424.336 14.8748 424.151 14.9503 423.942 14.9503H423.758V14.4052V14.4052Z" fill="#0C1724"/>
<path fill-rule="evenodd" clip-rule="evenodd" d="M63.5319 21.8293L60.4272 21.1557C58.8737 20.8189 58.0184 19.8607 58.0184 18.4566C58.0184 16.672 59.6028 15.3258 61.7042 15.3258C64.612 15.3258 65.4706 17.4652 65.6651 18.1217C65.7267 18.3399 65.8785 18.5249 66.0825 18.6269C66.2817 18.7288 66.5047 18.744 66.7182 18.6696L68.3547 18.0923C68.5512 18.0225 68.7136 17.8803 68.8088 17.6948C68.904 17.5094 68.9248 17.2945 68.867 17.0942C68.4448 15.6095 66.8937 12.1561 61.633 12.1561C57.7385 12.1561 54.4512 15.1351 54.4512 18.662C54.4512 21.6931 56.4402 23.9321 59.7735 24.6579L62.7335 25.303C64.5152 25.6777 65.5797 26.764 65.5797 28.2061C65.5797 30.0466 64.0665 31.1898 61.6283 31.1898C58.7632 31.1898 57.3828 29.3113 57.046 27.5515C57.0247 27.438 56.9795 27.3303 56.9135 27.2356C56.8474 27.1409 56.762 27.0613 56.6629 27.0021C56.5638 26.9429 56.4532 26.9055 56.3385 26.8922C56.2238 26.879 56.1076 26.8903 55.9976 26.9253L54.1998 27.4993C54.0109 27.5568 53.8498 27.6821 53.7474 27.851C53.645 28.0199 53.6085 28.2206 53.6448 28.4148C54.2046 31.3321 56.6015 34.4439 61.6615 34.4439C65.9374 34.4439 69.1621 31.6594 69.1621 27.9689C69.1621 24.8523 67.1052 22.6134 63.5172 21.8212L63.5319 21.8293ZM81.8995 24.6673C81.909 24.729 81.8806 24.7765 81.8616 24.7954C81.8459 24.8149 81.826 24.8305 81.8034 24.8412C81.7808 24.8518 81.7561 24.8573 81.7311 24.8571H75.1376C75.1113 24.8571 75.0854 24.8511 75.0618 24.8396C75.0382 24.8281 75.0176 24.8114 75.0014 24.7907C74.9864 24.7733 74.9756 24.7527 74.9698 24.7305C74.964 24.7083 74.9635 24.6851 74.9682 24.6626C75.2694 23.2879 76.4482 21.9018 78.4026 21.9018C80.3223 21.9018 81.6282 22.9312 81.8962 24.6593L81.8995 24.6673ZM78.377 18.8232C74.9046 18.8232 71.3137 21.7263 71.3137 26.5885C71.3137 28.9318 72.0822 30.9336 73.5385 32.3709C74.8876 33.7039 76.7309 34.4391 78.728 34.4391C81.7022 34.4391 84.112 32.8851 85.1745 30.2838C85.2599 30.0703 85.2552 29.8331 85.1631 29.6244C85.1178 29.5231 85.052 29.4323 84.97 29.3575C84.888 29.2828 84.7914 29.2257 84.6864 29.1899L83.2349 28.6871C83.0406 28.6203 82.8283 28.6293 82.6404 28.7123C82.4525 28.7952 82.3028 28.9459 82.2212 29.1344C81.595 30.6096 80.4186 31.3544 78.7251 31.3544C76.6759 31.3544 75.1153 29.974 74.8449 27.9186C74.8415 27.8956 74.8433 27.8721 74.8503 27.8499C74.8573 27.8277 74.8692 27.8074 74.8852 27.7905C74.9042 27.7668 74.9469 27.7289 75.0133 27.7289H84.6352C85.0668 27.7289 85.4273 27.3921 85.4511 26.9623C85.4606 26.8247 85.4653 26.6729 85.4653 26.523C85.4653 21.77 82.7472 18.818 78.3736 18.818L78.377 18.8232ZM94.7613 30.3597C92.4512 30.3597 91.0139 28.7563 91.0139 26.1758C91.0139 23.6332 92.4844 21.9901 94.7613 21.9901C96.9671 21.9901 98.449 23.6693 98.449 26.1739C98.449 28.6757 96.9661 30.3578 94.7608 30.3578L94.7613 30.3597ZM100.918 19.2597H99.1776C98.727 19.2597 98.3593 19.6263 98.3593 20.0993C98.3592 20.1327 98.3492 20.1654 98.3306 20.1932C98.3121 20.221 98.2858 20.2428 98.255 20.2558C98.2218 20.27 98.1554 20.289 98.0956 20.2321C97.199 19.4124 95.9372 18.9964 94.3481 18.9964C90.4095 18.9964 87.5506 22.0181 87.5506 26.1782C87.5506 30.3203 90.4095 33.3268 94.3481 33.3268C95.8044 33.3268 97.1231 32.8486 98.0624 31.9805C98.124 31.9236 98.1904 31.9379 98.2237 31.9521C98.2474 31.9616 98.328 32.0043 98.328 32.1086V32.7063C98.328 35.5999 97.0615 36.9495 94.3481 36.9495C92.6262 36.9495 91.2743 35.8821 90.909 34.2323C90.8616 34.0189 90.7335 33.8386 90.5485 33.7233C90.3635 33.6081 90.1406 33.5715 89.9271 33.619L88.2175 34.0127C88.0076 34.0627 87.8256 34.193 87.7108 34.3758C87.596 34.5585 87.5576 34.7791 87.6037 34.9899C88.2156 37.9878 90.9271 40.0039 94.3443 40.0039C96.8917 40.0039 98.8318 39.2283 100.113 37.6985C101.17 36.4338 101.73 34.6782 101.73 32.6214V20.0903C101.73 19.6396 101.365 19.2744 100.914 19.2744L100.918 19.2597ZM121.615 18.8498C119.689 18.8498 118.122 19.5765 117.083 20.956C117.065 20.9815 117.041 21.0021 117.013 21.0157C116.986 21.0293 116.955 21.0355 116.924 21.0338C116.901 21.034 116.878 21.0283 116.858 21.017C116.838 21.0058 116.822 20.9895 116.81 20.9697C115.939 19.6225 114.434 18.8493 112.683 18.8493C111.29 18.8493 109.951 19.3389 109.008 20.1941C108.985 20.2179 108.955 20.2339 108.923 20.2399C108.891 20.2458 108.857 20.2415 108.827 20.2273C108.798 20.2154 108.774 20.1948 108.757 20.1683C108.74 20.1418 108.731 20.1108 108.733 20.0793C108.733 19.6287 108.365 19.2634 107.915 19.2634H106.261C105.811 19.2634 105.445 19.6287 105.445 20.0793V33.1859C105.445 33.6365 105.812 34.0027 106.263 34.0027H108.004C108.455 34.0027 108.82 33.6346 108.82 33.184V25.1944C108.82 23.2528 110.006 21.9478 111.775 21.9478C114.09 21.9478 114.436 23.7632 114.436 24.8448V33.1982C114.436 33.6489 114.802 34.0141 115.252 34.0141H117.023C117.474 34.0141 117.839 33.647 117.839 33.1963V25.1659C117.839 23.2704 119.044 21.9469 120.766 21.9469C123.082 21.9469 123.427 23.7637 123.427 24.8452V33.1987C123.427 33.6493 123.792 34.0146 124.243 34.0146H125.984C126.434 34.0146 126.8 33.6474 126.8 33.1968V24.5492C126.8 20.6215 124.195 18.865 121.615 18.865V18.8498ZM133.384 24.8685C133.357 24.8684 133.332 24.8625 133.308 24.8511C133.285 24.8398 133.264 24.8234 133.247 24.803C133.233 24.7857 133.223 24.7654 133.217 24.7435C133.212 24.7217 133.212 24.6989 133.216 24.6768C133.518 23.3012 134.696 21.9161 136.652 21.9161C138.572 21.9161 139.878 22.9454 140.146 24.6721C140.155 24.7338 140.125 24.7812 140.108 24.8002C140.091 24.8178 140.071 24.8319 140.048 24.8417C140.026 24.8515 140.002 24.8567 139.977 24.8571H133.384V24.8685ZM136.623 18.8346C133.151 18.8346 129.56 21.7396 129.56 26.5999C129.56 28.9461 130.329 30.9464 131.783 32.3852C133.13 33.7181 134.971 34.4486 136.973 34.4486C139.942 34.4486 142.352 32.8927 143.419 30.2885C143.505 30.075 143.5 29.8379 143.405 29.6291C143.31 29.4204 143.139 29.2686 142.926 29.1927L141.474 28.6909C141.071 28.5519 140.625 28.7478 140.46 29.1377C139.834 30.6092 138.658 31.3577 136.964 31.3577C134.915 31.3577 133.354 29.9745 133.084 27.9186C133.08 27.8953 133.082 27.8716 133.088 27.8489C133.095 27.8263 133.106 27.8054 133.122 27.7877C133.141 27.764 133.183 27.7284 133.25 27.7284H142.875C143.306 27.7284 143.665 27.3916 143.69 26.9613C143.699 26.8238 143.705 26.672 143.705 26.5202C143.705 21.7671 140.987 18.8119 136.613 18.8119L136.623 18.8346ZM154.066 18.8645C152.593 18.8645 151.302 19.3664 150.332 20.3161C150.31 20.3384 150.282 20.3536 150.251 20.3595C150.22 20.3654 150.188 20.3619 150.159 20.3493C150.129 20.3362 150.104 20.3147 150.086 20.2874C150.068 20.2601 150.059 20.2281 150.059 20.1956V20.0912C150.059 19.6406 149.692 19.2753 149.241 19.2753H147.534C147.083 19.2753 146.716 19.6406 146.716 20.0912V33.1954C146.716 33.646 147.081 34.0127 147.532 34.0127H149.301C149.752 34.0127 150.119 33.6451 150.119 33.1944V25.5444C150.119 23.833 150.895 22.0038 153.075 22.0038C155.034 22.0038 156.028 23.0868 156.028 25.2223V33.1916C156.028 33.6422 156.393 34.0075 156.844 34.0075H158.613C159.064 34.0075 159.43 33.6375 159.43 33.1868V24.7532C159.43 21.1196 157.372 18.8617 154.065 18.8617L154.066 18.8645ZM167.675 22.4137H169.738C170.189 22.4137 170.554 22.046 170.554 21.5959V20.0903C170.554 19.6396 170.189 19.2744 169.738 19.2744H167.675C167.653 19.2744 167.631 19.2701 167.611 19.2617C167.591 19.2534 167.573 19.2411 167.557 19.2257C167.542 19.2103 167.53 19.192 167.521 19.1719C167.513 19.1517 167.509 19.1301 167.509 19.1083V15.6389C167.509 15.1882 167.14 14.822 166.69 14.822H165.153C164.703 14.822 164.337 15.1882 164.337 15.6389V17.4319C164.337 18.2716 164.016 19.2739 162.493 19.2739H162.231C161.78 19.2739 161.415 19.6391 161.415 20.0898V21.5935C161.415 22.0441 161.782 22.4094 162.231 22.4094H163.943C164.036 22.4094 164.109 22.4806 164.109 22.5754V29.8189C164.109 32.4943 165.739 34.1545 168.36 34.1545C169.09 34.1545 169.658 34.0502 169.932 33.9885C170.302 33.9031 170.562 33.5758 170.562 33.1916V31.7974C170.562 31.6828 170.538 31.5694 170.491 31.4647C170.444 31.36 170.376 31.2663 170.29 31.1896C170.205 31.113 170.105 31.0552 169.995 31.0199C169.886 30.9846 169.771 30.9727 169.657 30.9849C169.472 31.0038 169.293 31.0147 169.152 31.0147C167.962 31.0147 167.516 30.5783 167.516 29.4067V22.5759C167.516 22.4848 167.592 22.4108 167.682 22.4108" fill="#43AF79"/>
<path fill-rule="evenodd" clip-rule="evenodd" d="M19.757 41.0001C17.9051 41.0001 16.0759 40.7249 14.3208 40.1809C13.8402 40.0319 13.4384 39.6982 13.2038 39.253C12.9693 38.8079 12.9211 38.2878 13.0699 37.8072C13.3802 36.8015 14.4456 36.2418 15.4441 36.5549C16.8349 36.9865 18.2855 37.2047 19.757 37.2047C26.1954 37.2047 31.7858 33.0731 33.6685 26.9206C33.7414 26.6824 33.8605 26.4609 34.019 26.2687C34.1776 26.0766 34.3725 25.9176 34.5926 25.8008C34.8126 25.6841 35.0536 25.6118 35.3016 25.5883C35.5496 25.5647 35.7998 25.5903 36.0379 25.6636C37.0398 25.9672 37.6033 27.0297 37.2969 28.0306C34.9232 35.7869 27.8742 41.0001 19.757 41.0001Z" fill="#43AF79"/>
<path fill-rule="evenodd" clip-rule="evenodd" d="M4.03197 19.7374C3.73521 19.7375 3.44257 19.6679 3.17758 19.5343C2.91258 19.4007 2.68261 19.2068 2.50615 18.9682C2.32969 18.7296 2.21166 18.4529 2.16154 18.1604C2.11141 17.8679 2.1306 17.5678 2.21755 17.284C4.59172 9.52826 11.6407 4.31885 19.757 4.31885C21.6103 4.31885 23.4394 4.59398 25.1931 5.13854C25.4312 5.21228 25.6523 5.33219 25.844 5.49142C26.0357 5.65064 26.1942 5.84607 26.3103 6.06653C26.4265 6.287 26.4981 6.52819 26.521 6.77632C26.5439 7.02446 26.5178 7.27468 26.444 7.51271C26.3705 7.75087 26.2507 7.9722 26.0915 8.164C25.9323 8.3558 25.7369 8.51432 25.5163 8.63047C25.2958 8.74662 25.0545 8.81813 24.8063 8.84089C24.5581 8.86365 24.3078 8.83722 24.0698 8.76312C22.68 8.33619 21.2284 8.11799 19.757 8.11799C13.3199 8.11799 7.72865 12.2497 5.84592 18.4021C5.72693 18.7904 5.48659 19.1302 5.16019 19.3719C4.8338 19.6135 4.43854 19.7441 4.03245 19.7445" fill="#43AF79"/>
<path fill-rule="evenodd" clip-rule="evenodd" d="M24.6316 29.3767H1.89744C0.849102 29.3767 0 28.5276 0 27.4793C0 26.4309 0.849102 25.5818 1.89744 25.5818H24.6316C25.6799 25.5818 26.529 26.4309 26.529 27.4793C26.529 28.5276 25.6799 29.3767 24.6316 29.3767Z" fill="#93C8A2"/>
<path fill-rule="evenodd" clip-rule="evenodd" d="M37.6167 19.7367H14.8835C13.8352 19.7367 12.9861 18.8876 12.9861 17.8393C12.9861 16.7909 13.8352 15.9418 14.8835 15.9418H37.6167C38.665 15.9418 39.5141 16.7909 39.5141 17.8393C39.5141 18.8876 38.665 19.7367 37.6167 19.7367Z" fill="#93C8A2"/>
<path fill-rule="evenodd" clip-rule="evenodd" d="M32.9167 10.6086C32.9167 11.1118 32.7168 11.5945 32.361 11.9503C32.0051 12.3061 31.5225 12.5061 31.0193 12.5061C30.5161 12.5061 30.0334 12.3061 29.6776 11.9503C29.3218 11.5945 29.1218 11.1118 29.1218 10.6086C29.1218 10.1054 29.3218 9.62277 29.6776 9.26693C30.0334 8.91109 30.5161 8.71118 31.0193 8.71118C31.5225 8.71118 32.0051 8.91109 32.361 9.26693C32.7168 9.62277 32.9167 10.1054 32.9167 10.6086ZM10.3918 34.7127C10.3918 35.2159 10.1919 35.6985 9.83604 36.0544C9.4802 36.4102 8.99758 36.6101 8.49435 36.6101C7.99111 36.6101 7.50849 36.4102 7.15266 36.0544C6.79682 35.6985 6.59691 35.2159 6.59691 34.7127C6.59691 34.2095 6.79682 33.7268 7.15266 33.371C7.50849 33.0152 7.99111 32.8153 8.49435 32.8153C8.99758 32.8153 9.4802 33.0152 9.83604 33.371C10.1919 33.7268 10.3918 34.2095 10.3918 34.7127Z" fill="#93C8A2"/>
</svg>
