<svg width="40" height="34" viewBox="0 0 40 34" fill="none" xmlns="http://www.w3.org/2000/svg">
<g clip-path="url(#clip0_7_4604)">
<path d="M18.0945 33.3317C14.8636 33.3317 11.7052 32.3737 9.01885 30.5787C6.33247 28.7837 4.23868 26.2324 3.00227 23.2475C1.76587 20.2625 1.44237 16.9779 2.07268 13.8091C2.703 10.6403 4.25882 7.7296 6.5434 5.44501C8.82798 3.16043 11.7387 1.60461 14.9075 0.974293C18.0763 0.343978 21.3609 0.667478 24.3458 1.90389C27.3308 3.14029 29.8821 5.23408 31.6771 7.92046C33.472 10.6068 34.4301 13.7652 34.4301 16.9961C34.4253 21.3271 32.7027 25.4793 29.6402 28.5418C26.5777 31.6043 22.4255 33.3269 18.0945 33.3317Z" fill="#00B8FF"/>
<path d="M18.094 32.3366C21.1279 32.3366 24.0938 31.4369 26.6164 29.7514C29.1391 28.0658 31.1053 25.67 32.2663 22.8669C33.4274 20.0639 33.7312 16.9795 33.1393 14.0039C32.5474 11.0282 31.0864 8.29485 28.941 6.1495C26.7957 4.00416 24.0623 2.54316 21.0867 1.95126C18.111 1.35936 15.0266 1.66314 12.2236 2.82419C9.42055 3.98525 7.02476 5.95142 5.33917 8.47408C3.65358 10.9967 2.75391 13.9626 2.75391 16.9966C2.7587 21.0635 4.37642 24.9625 7.2522 27.8383C10.128 30.7141 14.027 32.3318 18.094 32.3366Z" fill="#2437AC"/>
<path d="M38.2725 11.2035C38.0139 11.1079 37.326 10.2959 34.2358 10.5545C33.2014 10.6424 30.2042 11.5889 26.4157 12.7707L17.5458 9.19165L14.8719 9.47611L22.0015 14.149C19.5318 14.9093 16.9329 15.6825 14.4271 16.3548L9.21119 12.7344L7.76562 13.1275L12.1825 18.7701L10.9076 21.413L12.7566 21.1932L13.9823 19.4218C17.4592 19.3108 20.9201 18.8999 24.3263 18.1935L22.5937 25.1756L24.784 24.2343L28.1768 17.3582C38.8647 14.8032 39.7853 12.8482 39.987 12.3026C40.2042 11.682 38.5337 11.3018 38.2725 11.2035Z" fill="#00B8FF"/>
<path d="M4.25098 27.9886L22.0063 24.7561L22.3425 22.8088L4.25098 27.9886Z" fill="#00B8FF"/>
<path d="M2.22656 25.2578L22.692 21.1797L23.1058 19.1057L2.22656 25.2578Z" fill="#00B8FF"/>
<path d="M10.548 20.5896L1.02637 22.5497L11.1453 19.4026L10.548 20.5896Z" fill="#00B8FF"/>
<path d="M10.6082 17.7757L0.4375 20.0591L9.8841 16.9534L10.6082 17.7757Z" fill="#00B8FF"/>
<path d="M9.04577 15.4814L0 17.5709L8.3217 14.6565L9.04577 15.4814Z" fill="#00B8FF"/>
</g>
<defs>
<clipPath id="clip0_7_4604">
<rect width="40" height="32.6713" fill="white" transform="translate(0 0.664307)"/>
</clipPath>
</defs>
</svg>
