<svg width="24" height="24" viewBox="0 0 24 24" fill="none" xmlns="http://www.w3.org/2000/svg">
<path d="M23.7188 12C23.7188 12.373 23.5706 12.7306 23.3069 12.9944C23.0431 13.2581 22.6855 13.4062 22.3125 13.4062H13.4062V22.3125C13.4062 22.6855 13.2581 23.0431 12.9944 23.3069C12.7306 23.5706 12.373 23.7188 12 23.7188C11.627 23.7188 11.2694 23.5706 11.0056 23.3069C10.7419 23.0431 10.5938 22.6855 10.5938 22.3125V13.4062H1.6875C1.31454 13.4062 0.956854 13.2581 0.693131 12.9944C0.429408 12.7306 0.28125 12.373 0.28125 12C0.28125 11.627 0.429408 11.2694 0.693131 11.0056C0.956854 10.7419 1.31454 10.5938 1.6875 10.5938H10.5938V1.6875C10.5938 1.31454 10.7419 0.956854 11.0056 0.693131C11.2694 0.429408 11.627 0.28125 12 0.28125C12.373 0.28125 12.7306 0.429408 12.9944 0.693131C13.2581 0.956854 13.4062 1.31454 13.4062 1.6875V10.5938H22.3125C22.6855 10.5938 23.0431 10.7419 23.3069 11.0056C23.5706 11.2694 23.7188 11.627 23.7188 12Z" fill="#00B8FF"/>
</svg>
