<svg width="30" height="24" viewBox="0 0 30 24" fill="none" xmlns="http://www.w3.org/2000/svg">
<path d="M11.4258 11.1406C11.9104 11.1406 12.3047 11.535 12.3047 12.0195C12.3047 12.5041 11.9104 12.8984 11.4258 12.8984C10.9412 12.8984 10.5469 12.5041 10.5469 12.0195C10.5469 11.535 10.9412 11.1406 11.4258 11.1406Z" fill="#2437AC"/>
<path d="M12.3047 7.71289V9.53398C12.0299 9.43613 11.734 9.38281 11.4258 9.38281C9.97207 9.38281 8.78906 10.5658 8.78906 12.0195C8.78906 13.4732 9.97207 14.6562 11.4258 14.6562C11.734 14.6562 12.0299 14.6029 12.3047 14.5051V16.3262C12.017 16.3848 11.7229 16.4141 11.4258 16.4141C9.00293 16.4141 7.03125 14.4424 7.03125 12.0195C7.03125 9.59668 9.00293 7.625 11.4258 7.625C11.7229 7.625 12.017 7.6543 12.3047 7.71289Z" fill="#2437AC"/>
<path d="M5.27344 12.0195C5.27344 15.4121 8.0332 18.1719 11.4258 18.1719C11.7217 18.1719 12.0152 18.1514 12.3047 18.1092V23.4453H9.66797C9.18281 23.4453 8.78906 23.0516 8.78906 22.5664V21.3219C8.07012 21.1174 7.37695 20.8279 6.7166 20.457L5.83242 21.3418C5.48906 21.6852 4.93301 21.6852 4.58965 21.3418L2.10352 18.8557C1.76004 18.5122 1.76139 17.955 2.10352 17.6129L2.98828 16.7281C2.6168 16.0684 2.32793 15.3752 2.12344 14.6562H0.878906C0.39375 14.6562 0 14.2625 0 13.7773V10.2617C0 9.77656 0.39375 9.38281 0.878906 9.38281H2.12344C2.32793 8.66387 2.6168 7.9707 2.98828 7.31035L2.10352 6.42617C1.76139 6.08404 1.76004 5.52688 2.10352 5.1834L4.58965 2.69727C4.93301 2.35391 5.48906 2.35391 5.83242 2.69727L6.71719 3.58203C7.37695 3.21055 8.07012 2.92168 8.78906 2.71719V1.47266C8.78906 0.9875 9.18281 0.59375 9.66797 0.59375H12.3047V5.92988C12.0152 5.8877 11.7217 5.86719 11.4258 5.86719C8.0332 5.86719 5.27344 8.62695 5.27344 12.0195Z" fill="#2437AC"/>
<path d="M24.7266 1.1082V5.86719H29.4855L24.7266 1.1082ZM16.6992 5.86719H20.332C20.8172 5.86719 21.2109 6.26094 21.2109 6.74609C21.2109 7.23125 20.8172 7.625 20.332 7.625H16.6992C16.2141 7.625 15.8203 7.23125 15.8203 6.74609C15.8203 6.26094 16.2141 5.86719 16.6992 5.86719ZM25.6055 18.1719H16.6992C16.2141 18.1719 15.8203 17.7781 15.8203 17.293C15.8203 16.8078 16.2141 16.4141 16.6992 16.4141H25.6055C26.0906 16.4141 26.4844 16.8078 26.4844 17.293C26.4844 17.7781 26.0906 18.1719 25.6055 18.1719ZM25.6055 14.6562H16.6992C16.2141 14.6562 15.8203 14.2625 15.8203 13.7773C15.8203 13.2922 16.2141 12.8984 16.6992 12.8984H25.6055C26.0906 12.8984 26.4844 13.2922 26.4844 13.7773C26.4844 14.2625 26.0906 14.6562 25.6055 14.6562ZM25.6055 11.1406H16.6992C16.2141 11.1406 15.8203 10.7469 15.8203 10.2617C15.8203 9.77656 16.2141 9.38281 16.6992 9.38281H25.6055C26.0906 9.38281 26.4844 9.77656 26.4844 10.2617C26.4844 10.7469 26.0906 11.1406 25.6055 11.1406ZM23.8477 7.625C23.3625 7.625 22.9688 7.23125 22.9688 6.74609V0.59375H14.0625V23.4453H29.1211C29.6062 23.4453 30 23.0516 30 22.5664V7.625H23.8477Z" fill="#2437AC"/>
</svg>
