<svg width="41" height="45" viewBox="0 0 41 45" fill="none" xmlns="http://www.w3.org/2000/svg">
<path d="M35.3236 27.0675C35.3612 26.589 35.3862 26.1134 35.3862 25.6525V7.6465C35.3862 7.52519 35.3503 7.40659 35.283 7.30562C35.2158 7.20465 35.1202 7.12583 35.0082 7.07908L18.1993 0.047833C18.1241 0.0163404 18.0434 0.00012207 17.9618 0.00012207C17.8803 0.00012207 17.7996 0.0163404 17.7244 0.047833L0.915795 7.07908C0.803851 7.12583 0.708238 7.20465 0.640989 7.30562C0.573739 7.40659 0.53786 7.52519 0.537866 7.6465V25.6525C0.532057 29.2413 1.59042 32.7513 3.57915 35.7388C5.56788 38.7262 8.3977 41.057 11.7109 42.4364L17.7251 44.9522C17.8003 44.9837 17.881 45 17.9625 45C18.0441 45 18.1248 44.9837 18.2 44.9522L24.2145 42.4364C24.3074 42.3977 24.3977 42.3552 24.4895 42.3148C25.4704 43.2506 26.6411 43.9644 27.9223 44.4078C29.2035 44.8512 30.565 45.0137 31.9145 44.8844C33.2641 44.755 34.57 44.3368 35.7436 43.6582C36.9172 42.9796 37.9311 42.0563 38.7164 40.9512C39.5017 39.8461 40.04 38.585 40.2948 37.2535C40.5497 35.9219 40.515 34.5511 40.1933 33.2342C39.8715 31.9172 39.2701 30.6849 38.43 29.6208C37.5899 28.5568 36.5307 27.686 35.3243 27.0675H35.3236ZM17.962 43.7179L12.1851 41.3016C9.09616 40.0153 6.45788 37.842 4.60376 35.0566C2.74964 32.2712 1.76293 28.9986 1.76833 25.6525V8.05607L17.962 1.28217L34.1557 8.05607V25.6525C34.1557 25.9471 34.1458 26.2501 34.129 26.5525C33.3968 26.2954 32.6356 26.1301 31.8628 26.0603C31.867 25.9218 31.8705 25.785 31.8705 25.6518V9.98685C31.8705 9.8655 31.8346 9.74686 31.7674 9.64584C31.7001 9.54482 31.6045 9.46593 31.4926 9.41908L18.1993 3.85877C18.1241 3.82728 18.0434 3.81106 17.9618 3.81106C17.8803 3.81106 17.7996 3.82728 17.7244 3.85877L4.43107 9.41908C4.31922 9.46602 4.22372 9.54495 4.15655 9.64595C4.08938 9.74696 4.05352 9.86555 4.05349 9.98685V25.6525C4.0488 28.5478 4.90257 31.3795 6.50689 33.7896C8.1112 36.1998 10.394 38.0802 13.0669 39.1933L17.7244 41.1413C17.7995 41.1728 17.8803 41.1891 17.9618 41.1891C18.0434 41.1891 18.1241 41.1728 18.1993 41.1413L22.4012 39.3835C22.7223 40.0875 23.1286 40.7495 23.6109 41.3547L17.962 43.7179ZM21.5522 35.4755C21.5517 36.41 21.6903 37.3394 21.9635 38.2331L17.962 39.9069L13.5418 38.0581C11.093 37.0385 9.00145 35.3157 7.53159 33.1076C6.06173 30.8994 5.27956 28.3051 5.28396 25.6525V10.3964L17.962 5.09311L30.6401 10.3964V25.6542C30.6401 25.7769 30.6369 25.9035 30.633 26.0318C28.1936 26.1308 25.8868 27.1687 24.1946 28.9285C22.5023 30.6884 21.5556 33.034 21.5522 35.4755ZM26.217 42.1552V41.4C26.218 40.5378 26.5609 39.7112 27.1705 39.1016C27.7802 38.4919 28.6068 38.149 29.469 38.1481H32.5452C33.4074 38.149 34.234 38.4919 34.8436 39.1016C35.4533 39.7112 35.7962 40.5378 35.7971 41.4V42.1548C34.402 43.1594 32.7263 43.6999 31.0071 43.6999C29.2879 43.6999 27.6122 43.1598 26.217 42.1552ZM37.0118 41.0875C36.932 39.957 36.4272 38.8986 35.5989 38.1251C34.7706 37.3516 33.6802 36.9203 32.5469 36.9179H29.4708C28.3374 36.9202 27.247 37.3515 26.4187 38.125C25.5903 38.8985 25.0856 39.9569 25.0059 41.0875C23.9102 39.9168 23.1806 38.4513 22.9069 36.8713C22.6331 35.2914 22.8272 33.6659 23.4653 32.1948C24.1033 30.7237 25.1575 29.4713 26.498 28.5915C27.8386 27.7117 29.4071 27.2429 31.0106 27.2429C32.6141 27.2429 34.1826 27.7117 35.5232 28.5915C36.8637 29.4713 37.9179 30.7237 38.5559 32.1948C39.194 33.6659 39.3881 35.2914 39.1143 36.8713C38.8406 38.4513 38.111 39.9168 37.0153 41.0875H37.0118Z" fill="#00B8FF"/>
<path d="M31.0066 29.0055C30.3161 28.967 29.63 29.1366 29.0369 29.4923C28.4439 29.8481 27.9712 30.3736 27.6801 31.0009C27.389 31.6282 27.2929 32.3284 27.4041 33.011C27.5153 33.6935 27.8288 34.327 28.304 34.8295C28.7792 35.3319 29.3943 35.6802 30.0696 35.8292C30.7449 35.9783 31.4494 35.9213 32.0919 35.6655C32.7344 35.4098 33.2855 34.9672 33.6737 34.3949C34.0619 33.8226 34.2694 33.1469 34.2694 32.4554C34.2925 31.5657 33.9621 30.7031 33.3506 30.0565C32.739 29.4099 31.8962 29.032 31.0066 29.0055ZM31.0066 34.6744C30.5594 34.7138 30.1106 34.6172 29.7193 34.3971C29.3279 34.1771 29.0122 33.8439 28.8134 33.4414C28.6147 33.0388 28.5422 32.5855 28.6055 32.141C28.6688 31.6965 28.865 31.2816 29.1682 30.9505C29.4714 30.6194 29.8676 30.3876 30.3049 30.2856C30.7421 30.1836 31.2 30.216 31.6184 30.3787C32.0369 30.5414 32.3964 30.8267 32.6499 31.1973C32.9034 31.5679 33.039 32.0064 33.039 32.4554C33.0624 33.0189 32.8617 33.5688 32.4809 33.9849C32.1001 34.401 31.57 34.6494 31.0066 34.6758V34.6744Z" fill="#00B8FF"/>
<path d="M17.962 9.94543C16.421 9.94543 14.9146 10.4024 13.6334 11.2585C12.3521 12.1146 11.3534 13.3315 10.7637 14.7551C10.174 16.1788 10.0197 17.7454 10.3204 19.2568C10.621 20.7681 11.363 22.1564 12.4527 23.2461C13.5423 24.3357 14.9306 25.0778 16.442 25.3784C17.9533 25.679 19.5199 25.5247 20.9436 24.935C22.3673 24.3453 23.5841 23.3467 24.4402 22.0654C25.2964 20.7841 25.7533 19.2777 25.7533 17.7368C25.751 15.6711 24.9294 13.6907 23.4687 12.23C22.0081 10.7694 20.0277 9.94776 17.962 9.94543ZM23.889 20.531H21.9128C22.0564 19.8124 22.1425 19.0835 22.1702 18.3513H24.4905C24.4189 19.1074 24.2153 19.8451 23.889 20.531ZM12.035 14.9411H14.0108C13.8676 15.6598 13.7815 16.3886 13.7534 17.1208H11.4331C11.5048 16.3647 11.7085 15.6269 12.035 14.9411ZM18.5772 13.7107V11.3447C19.2185 11.6793 19.8393 12.5136 20.2865 13.7114L18.5772 13.7107ZM20.6514 14.9411C20.8117 15.6577 20.9076 16.3872 20.938 17.1208H18.5772V14.9411H20.6514ZM17.3468 11.344V13.7107H15.6375C16.0846 12.5154 16.7055 11.6793 17.3468 11.3447V11.344ZM17.3468 14.9411V17.1208H14.986C15.0162 16.3872 15.1121 15.6577 15.2725 14.9411H17.3468ZM11.4324 18.3513H13.7527C13.7808 19.0835 13.8669 19.8124 14.0101 20.531H12.0343C11.7078 19.8452 11.5041 19.1074 11.4324 18.3513ZM14.986 18.3513H17.3468V20.531H15.2725C15.1121 19.8144 15.0162 19.085 14.986 18.3513ZM17.3468 21.7614V24.1282C16.7055 23.7938 16.0846 22.9592 15.6371 21.7614H17.3468ZM18.5772 24.1282V21.7614H20.2865C19.8393 22.9596 19.2185 23.7938 18.5772 24.1282ZM18.5772 20.531V18.3513H20.938C20.9076 19.0849 20.8117 19.8144 20.6514 20.531H18.5772ZM22.1702 17.1208C22.1423 16.3886 22.0562 15.6597 21.9128 14.9411H23.889C24.2157 15.6269 24.4196 16.3646 24.4916 17.1208H22.1702ZM23.1314 13.7107H21.5947C21.3844 13.0358 21.089 12.3904 20.7158 11.7901C21.6617 12.2299 22.4896 12.8882 23.1314 13.7107ZM15.2064 11.7908C14.8338 12.391 14.5391 13.0361 14.3293 13.7107H12.7926C13.434 12.8887 14.2613 12.2308 15.2064 11.7908ZM12.7923 21.7614H14.3293C14.539 22.4363 14.8338 23.0816 15.2064 23.682C14.2611 23.2419 13.4337 22.5837 12.7923 21.7614ZM20.7172 23.6824C21.0904 23.0819 21.3858 22.4364 21.5961 21.7614H23.1331C22.4912 22.5841 21.6632 23.2422 20.7172 23.6824Z" fill="#00B8FF"/>
</svg>
