<svg width="52" height="10" viewBox="0 0 52 10" fill="none" xmlns="http://www.w3.org/2000/svg">
<g clip-path="url(#clip0_7_4835)">
<path d="M47.2105 2.14535C46.4106 2.36864 45.5884 2.50232 44.759 2.54396L38.0755 3.26812C36.5634 3.44083 35.0723 3.76354 33.6242 4.23146C32.835 4.49711 32.0757 4.84447 31.3587 5.26787C30.5825 5.79092 29.7749 6.26573 28.9404 6.68962C28.4375 6.925 27.8878 7.04312 27.3326 7.03509C26.7214 6.99953 26.1435 6.74478 25.7049 6.31757C24.8612 5.44725 24.6287 4.39091 24.0772 3.71326C23.8491 3.38049 23.506 3.14385 23.1139 3.04889C22.6936 2.95572 22.2553 2.9857 21.8516 3.13525C20.9452 3.46496 20.1849 4.10521 19.7057 4.94233C19.1277 5.79936 18.6759 6.77598 18.0182 7.69281C17.3781 8.67796 16.4295 9.42324 15.3209 9.81214C14.739 9.9783 14.1223 9.9783 13.5404 9.81214C12.9891 9.64862 12.4808 9.36501 12.0522 8.98168C11.2858 8.27833 10.6885 7.41071 10.3049 6.44379C9.91959 5.55354 9.64054 4.68987 9.25521 3.93249C8.81334 2.8972 8.01098 2.05732 6.99695 1.56863C5.98293 1.07994 4.82607 0.975618 3.74097 1.27502C3.16462 1.42031 2.62589 1.68687 2.16075 2.05692C1.69561 2.42697 1.31477 2.89199 1.04364 3.42093C0.610002 4.23725 0.403487 5.15502 0.445698 6.0784C0.462342 6.67003 0.588506 7.25345 0.817762 7.79911C0.970566 8.18444 1.07686 8.37711 1.04364 8.40368C1.01043 8.43026 0.850974 8.26416 0.62509 7.89876C0.298973 7.35377 0.0970721 6.74356 0.0337932 6.11161C-0.0934455 5.10065 0.0725961 4.07443 0.512138 3.15518C0.79995 2.52982 1.21882 1.97363 1.74037 1.5243C2.26192 1.07497 2.87396 0.74299 3.53502 0.550863C4.34237 0.315211 5.19223 0.263307 6.02226 0.398963C6.85229 0.534619 7.64143 0.854397 8.33175 1.33482C9.08289 1.89613 9.68508 2.6329 10.0857 3.48072C10.5175 4.31118 10.8231 5.18814 11.2018 6.0186C11.536 6.84603 12.054 7.58665 12.7166 8.18444C13.0189 8.47507 13.3917 8.68184 13.7983 8.78437C14.2049 8.88689 14.6313 8.88162 15.0352 8.76908C15.9067 8.44241 16.6499 7.84371 17.1545 7.06166C17.7325 6.25778 18.1843 5.28115 18.8155 4.33775C19.1365 3.84861 19.5182 3.40214 19.9515 3.00902C20.4081 2.61216 20.9387 2.3096 21.5128 2.11877C22.1052 1.91615 22.7422 1.88166 23.3531 2.01912C23.9729 2.17229 24.5187 2.53932 24.8944 3.05553C25.5986 3.99893 25.8378 5.04862 26.4092 5.57348C26.6685 5.83361 27.0128 5.99163 27.3791 6.0186C27.7827 6.02169 28.1821 5.93548 28.5484 5.76615C29.3507 5.36859 30.1293 4.92494 30.8804 4.43741C31.658 3.99169 32.4823 3.63298 33.3385 3.36778C34.8537 2.91462 36.4126 2.6229 37.9891 2.49746C40.8459 2.25829 43.1379 2.1852 44.7324 2.10548C45.5574 2.02711 46.3885 2.04049 47.2105 2.14535Z" fill="#2437AC"/>
<path d="M45.4762 6.27067C45.4231 6.13116 46.1406 5.73918 47.2235 5.0881C47.7683 4.76256 48.4127 4.36394 49.1036 3.89224C49.4491 3.65971 49.768 3.40061 50.1666 3.13486C50.3373 3.01878 50.4954 2.88519 50.6383 2.73625C50.7579 2.61893 50.8527 2.47887 50.9173 2.32433C50.9506 2.1981 50.9173 2.20475 50.9173 2.15824C50.821 2.07014 50.7009 2.01237 50.5719 1.99215L49.283 1.64668C48.4592 1.4208 47.7218 1.20156 47.1039 0.982318C45.8682 0.583698 45.1108 0.264796 45.1573 0.125279C45.2038 -0.0142383 46.001 0.0389127 47.2833 0.25151C47.9476 0.357809 48.6784 0.503969 49.5155 0.676705L50.8443 0.969028C51.184 1.03085 51.4955 1.19824 51.7345 1.44737C51.8826 1.61528 51.9774 1.8234 52.0069 2.0453C52.0341 2.24923 52.0113 2.45672 51.9405 2.64988C51.8291 2.95083 51.6521 3.22318 51.4223 3.44711C51.235 3.63977 51.0254 3.80928 50.7978 3.95203C50.4124 4.23106 50.0205 4.47688 49.6484 4.70277C48.9845 5.09981 48.2916 5.44626 47.5756 5.73918C46.3399 6.25738 45.5294 6.40355 45.4762 6.27067Z" fill="#2437AC"/>
</g>
<defs>
<clipPath id="clip0_7_4835">
<rect width="52" height="9.86585" fill="white" transform="translate(0 0.0673828)"/>
</clipPath>
</defs>
</svg>
