<svg width="45" height="45" viewBox="0 0 45 45" fill="none" xmlns="http://www.w3.org/2000/svg">
<path d="M44.3848 40.6289H0.615234C0.452093 40.629 0.29566 40.6938 0.180301 40.8092C0.0649422 40.9246 9.3144e-05 41.081 0 41.2441L0 44.3854C9.3144e-05 44.5485 0.0649422 44.7049 0.180301 44.8203C0.29566 44.9356 0.452093 45.0005 0.615234 45.0006H44.3848C44.5479 45.0005 44.7043 44.9356 44.8197 44.8203C44.9351 44.7049 44.9999 44.5485 45 44.3854V41.2441C44.9999 41.081 44.9351 40.9246 44.8197 40.8092C44.7043 40.6938 44.5479 40.629 44.3848 40.6289ZM43.7695 43.7701H1.23047V41.8594H43.7695V43.7701Z" fill="#00B8FF"/>
<path d="M3.7793 38.6488H10.2625C10.3433 38.6489 10.4233 38.633 10.498 38.6021C10.5726 38.5712 10.6405 38.5259 10.6976 38.4687C10.7547 38.4116 10.8001 38.3438 10.831 38.2691C10.8619 38.1944 10.8777 38.1144 10.8777 38.0336V25.0996C10.8777 24.9364 10.8129 24.78 10.6975 24.6646C10.5821 24.5492 10.4256 24.4844 10.2625 24.4844H3.7793C3.61616 24.4845 3.45972 24.5493 3.34436 24.6647C3.229 24.78 3.16416 24.9365 3.16406 25.0996V38.0371C3.16499 38.1997 3.23022 38.3553 3.3455 38.4699C3.46078 38.5845 3.61673 38.6488 3.7793 38.6488ZM4.39453 25.7131H9.64723V37.4201H4.39453V25.7131Z" fill="#00B8FF"/>
<path d="M14.0977 21.3789C13.9345 21.379 13.7781 21.4438 13.6627 21.5592C13.5474 21.6746 13.4825 21.831 13.4824 21.9941V38.0342C13.4824 38.1974 13.5472 38.3538 13.6626 38.4692C13.778 38.5846 13.9345 38.6494 14.0977 38.6494H20.5819C20.6627 38.6495 20.7427 38.6336 20.8174 38.6027C20.892 38.5718 20.9599 38.5265 21.017 38.4693C21.0742 38.4122 21.1195 38.3443 21.1504 38.2697C21.1813 38.195 21.1972 38.115 21.1971 38.0342V21.9941C21.1971 21.831 21.1323 21.6745 21.0169 21.5591C20.9015 21.4437 20.745 21.3789 20.5819 21.3789H14.0977ZM19.9666 37.4189H14.7139V22.6094H19.9666V37.4189Z" fill="#00B8FF"/>
<path d="M24.4182 27.6328C24.3374 27.6328 24.2574 27.6486 24.1827 27.6796C24.1081 27.7105 24.0402 27.7558 23.9831 27.8129C23.9259 27.87 23.8806 27.9379 23.8497 28.0126C23.8188 28.0872 23.8029 28.1672 23.803 28.248V38.0355C23.8029 38.1164 23.8188 38.1964 23.8497 38.271C23.8806 38.3457 23.9259 38.4135 23.9831 38.4707C24.0402 38.5278 24.1081 38.5731 24.1827 38.604C24.2574 38.6349 24.3374 38.6508 24.4182 38.6508H30.9024C31.0656 38.6508 31.2221 38.586 31.3375 38.4706C31.4528 38.3552 31.5177 38.1987 31.5177 38.0355V28.248C31.5177 28.0849 31.4528 27.9284 31.3375 27.813C31.2221 27.6976 31.0656 27.6328 30.9024 27.6328H24.4182ZM30.2861 37.4203H25.0334V28.8633H30.2861V37.4203Z" fill="#00B8FF"/>
<path d="M34.7373 38.6489H41.2205C41.3836 38.6489 41.5401 38.5841 41.6555 38.4687C41.7709 38.3533 41.8357 38.1968 41.8357 38.0336V15.8223C41.8357 15.6591 41.7709 15.5026 41.6555 15.3872C41.5401 15.2719 41.3836 15.207 41.2205 15.207H34.7373C34.6565 15.207 34.5765 15.2229 34.5018 15.2538C34.4271 15.2847 34.3593 15.33 34.3022 15.3871C34.245 15.4443 34.1997 15.5121 34.1688 15.5868C34.1379 15.6614 34.122 15.7415 34.1221 15.8223V38.0336C34.122 38.1144 34.1379 38.1945 34.1688 38.2691C34.1997 38.3438 34.245 38.4116 34.3022 38.4688C34.3593 38.5259 34.4271 38.5712 34.5018 38.6021C34.5765 38.633 34.6565 38.6489 34.7373 38.6489ZM35.3525 16.4375H40.6052V37.4184H35.3525V16.4375Z" fill="#00B8FF"/>
<path d="M22.5001 18.9099C24.3701 18.9099 26.1981 18.3553 27.753 17.3164C29.3078 16.2775 30.5197 14.8008 31.2353 13.0732C31.9509 11.3455 32.1382 9.44444 31.7733 7.61036C31.4085 5.77629 30.508 4.09158 29.1857 2.76929C27.8634 1.44699 26.1787 0.546498 24.3447 0.181678C22.5106 -0.183142 20.6095 0.00409666 18.8818 0.719717C17.1542 1.43534 15.6775 2.6472 14.6386 4.20205C13.5997 5.75691 13.0452 7.58492 13.0452 9.45493C13.048 11.9617 14.045 14.3649 15.8175 16.1375C17.5901 17.91 19.9933 18.9071 22.5001 18.9099ZM17.7101 16.1343V15.3795C17.711 14.5173 18.0539 13.6907 18.6636 13.081C19.2732 12.4714 20.0998 12.1284 20.962 12.1275H24.0382C24.9004 12.1284 25.727 12.4714 26.3366 13.081C26.9463 13.6907 27.2892 14.5173 27.2901 15.3795V16.1343C25.895 17.1389 24.2193 17.6794 22.5001 17.6794C20.7809 17.6794 19.1052 17.1389 17.7101 16.1343ZM22.5001 1.23047C24.1031 1.22933 25.6714 1.697 27.012 2.5759C28.3526 3.45481 29.4069 4.70657 30.0451 6.17707C30.6833 7.64757 30.8775 9.2726 30.6038 10.8521C30.3301 12.4315 29.6005 13.8965 28.5048 15.0666C28.4247 13.936 27.9196 12.8776 27.0909 12.1044C26.2623 11.3311 25.1716 10.9002 24.0382 10.8984H20.962C19.8287 10.9007 18.7382 11.332 17.9099 12.1055C17.0816 12.879 16.5768 13.9374 16.4972 15.068C15.4011 13.8981 14.6711 12.4332 14.3971 10.8536C14.1231 9.27406 14.3171 7.64886 14.9551 6.17816C15.5931 4.70745 16.6473 3.45545 17.9879 2.57635C19.3285 1.69724 20.897 1.22941 22.5001 1.23047Z" fill="#00B8FF"/>
<path d="M22.5 9.88639C23.3898 9.8599 24.2328 9.48184 24.8444 8.83501C25.4559 8.18818 25.7862 7.32532 25.7628 6.43545C25.7914 5.98941 25.7282 5.54225 25.5772 5.12159C25.4261 4.70093 25.1904 4.31571 24.8846 3.98973C24.5788 3.66374 24.2095 3.40391 23.7993 3.22629C23.3892 3.04867 22.947 2.95703 22.5 2.95703C22.053 2.95703 21.6108 3.04867 21.2007 3.22629C20.7905 3.40391 20.4212 3.66374 20.1154 3.98973C19.8096 4.31571 19.5739 4.70093 19.4228 5.12159C19.2718 5.54225 19.2086 5.98941 19.2371 6.43545C19.2138 7.32532 19.5441 8.18818 20.1556 8.83501C20.7672 9.48184 21.6102 9.8599 22.5 9.88639ZM22.5 4.21744C23.063 4.24382 23.5927 4.49185 23.9735 4.90741C24.3543 5.32296 24.5552 5.87228 24.5324 6.43545C24.5552 6.7162 24.5195 6.99862 24.4277 7.26492C24.3359 7.53121 24.19 7.77559 23.999 7.98266C23.8081 8.18973 23.5763 8.355 23.3183 8.46803C23.0603 8.58107 22.7817 8.63943 22.5 8.63943C22.2183 8.63943 21.9397 8.58107 21.6817 8.46803C21.4237 8.355 21.1919 8.18973 21.001 7.98266C20.81 7.77559 20.6641 7.53121 20.5723 7.26492C20.4805 6.99862 20.4448 6.7162 20.4676 6.43545C20.4448 5.87228 20.6457 5.32296 21.0265 4.90741C21.4073 4.49185 21.937 4.24382 22.5 4.21744Z" fill="#00B8FF"/>
</svg>
