<svg width="25" height="25" viewBox="0 0 25 25" fill="none" xmlns="http://www.w3.org/2000/svg">
<path d="M19.7184 10.3856L23.1332 7.1723L23.1531 7.15238C23.8565 6.44904 24.2516 5.4951 24.2516 4.50043C24.2516 3.50575 23.8565 2.55182 23.1531 1.84847C22.4498 1.14513 21.4959 0.75 20.5012 0.75C19.5065 0.75 18.5526 1.14513 17.8492 1.84847C17.8492 1.85551 17.8363 1.86137 17.8293 1.8684L14.616 5.28324L4.88946 1.74418C4.72182 1.68321 4.54026 1.67133 4.36611 1.70993C4.19195 1.74854 4.03243 1.83604 3.90626 1.96215L1.09376 4.77465C0.995753 4.87273 0.920725 4.99133 0.874079 5.12191C0.827433 5.25248 0.810331 5.39178 0.824006 5.52976C0.83768 5.66773 0.881791 5.80096 0.953159 5.91984C1.02453 6.03872 1.12138 6.14029 1.23673 6.21723L8.72384 11.2082L6.98712 12.9391H4.56251C4.3142 12.9392 4.07608 13.0378 3.9004 13.2133L1.0879 16.0258C0.978214 16.1352 0.897355 16.2701 0.852553 16.4184C0.807752 16.5668 0.800404 16.7239 0.831168 16.8757C0.861931 17.0275 0.929847 17.1694 1.02884 17.2886C1.12784 17.4077 1.25482 17.5005 1.39845 17.5586L5.71329 19.2848L7.43595 23.5914L7.44298 23.6102C7.50257 23.7544 7.59724 23.8815 7.71839 23.9799C7.83955 24.0783 7.98335 24.1449 8.13676 24.1737C8.29017 24.2024 8.44833 24.1924 8.5969 24.1446C8.74546 24.0967 8.87972 24.0125 8.98751 23.8996L11.7848 21.1012C11.8723 21.0145 11.9419 20.9114 11.9895 20.7978C12.0372 20.6842 12.062 20.5623 12.0625 20.4391V18.0145L13.7922 16.2848L18.7832 23.7719C18.8602 23.8873 18.9617 23.9841 19.0806 24.0555C19.1995 24.1269 19.3327 24.171 19.4707 24.1846C19.6087 24.1983 19.748 24.1812 19.8785 24.1346C20.0091 24.0879 20.1277 24.0129 20.2258 23.9149L23.0383 21.1024C23.1644 20.9762 23.2519 20.8167 23.2905 20.6425C23.3291 20.4684 23.3172 20.2868 23.2563 20.1192L19.7184 10.3856ZM19.7102 21.7797L14.7191 14.2938C14.6426 14.1776 14.5412 14.0798 14.4222 14.0077C14.3032 13.9355 14.1697 13.8907 14.0313 13.8766C13.9996 13.8766 13.9691 13.8766 13.9387 13.8766C13.8154 13.8767 13.6934 13.901 13.5796 13.9483C13.4658 13.9955 13.3624 14.0647 13.2754 14.152L10.4629 16.9645C10.287 17.14 10.1879 17.3781 10.1875 17.6266V20.0512L8.65587 21.5828L7.30821 18.2125C7.26106 18.0955 7.19078 17.9892 7.10157 17.9C7.01237 17.8108 6.90608 17.7406 6.78907 17.6934L3.4211 16.3457L4.95157 14.8141H7.37501C7.49816 14.8142 7.62012 14.79 7.73393 14.743C7.84774 14.6959 7.95116 14.6269 8.03829 14.5399L10.8508 11.7274C10.949 11.6293 11.0242 11.5106 11.071 11.3799C11.1178 11.2492 11.1349 11.1098 11.1213 10.9716C11.1076 10.8335 11.0634 10.7001 10.9919 10.5812C10.9204 10.4622 10.8234 10.3606 10.7078 10.2836L3.22188 5.29144L4.80392 3.71058L14.5563 7.25668C14.7281 7.31982 14.9146 7.33126 15.0929 7.28962C15.2712 7.24797 15.4333 7.15504 15.5594 7.0223L19.1852 3.16566C19.5386 2.82259 20.0128 2.63236 20.5053 2.63606C20.9978 2.63977 21.4691 2.83713 21.8173 3.18548C22.1655 3.53383 22.3626 4.0052 22.3661 4.49772C22.3696 4.99025 22.1792 5.46436 21.8359 5.81762L17.984 9.44223C17.8513 9.56829 17.7583 9.73045 17.7167 9.90871C17.675 10.087 17.6865 10.2735 17.7496 10.4454L21.2957 20.1977L19.7102 21.7797Z" fill="#00B8FF"/>
</svg>
